<mxfile host="app.diagrams.net" modified="2023-11-12T17:43:40.114Z" agent="Mozilla/5.0 (Windows NT 10.0; Win64; x64) AppleWebKit/537.36 (KHTML, like Gecko) Chrome/116.0.0.0 Safari/537.36 OPR/102.0.0.0" etag="_WNoxvB0j-kn3nqe_leb" version="22.1.0" type="device">
  <diagram id="C5RBs43oDa-KdzZeNtuy" name="Page-1">
    <mxGraphModel dx="1741" dy="2165" grid="1" gridSize="10" guides="1" tooltips="1" connect="1" arrows="1" fold="1" page="1" pageScale="1" pageWidth="827" pageHeight="1169" background="none" math="0" shadow="0">
      <root>
        <mxCell id="WIyWlLk6GJQsqaUBKTNV-0" />
        <mxCell id="WIyWlLk6GJQsqaUBKTNV-1" parent="WIyWlLk6GJQsqaUBKTNV-0" />
        <mxCell id="etLwFJgJZtQVE6GD_fiM-0" value="Gestor Agrícola" style="rounded=0;whiteSpace=wrap;html=1;" parent="WIyWlLk6GJQsqaUBKTNV-1" vertex="1">
          <mxGeometry x="100" y="308" width="120" height="60" as="geometry" />
        </mxCell>
        <mxCell id="etLwFJgJZtQVE6GD_fiM-2" value="Edíficio" style="rounded=0;whiteSpace=wrap;html=1;" parent="WIyWlLk6GJQsqaUBKTNV-1" vertex="1">
          <mxGeometry x="630" y="20" width="120" height="60" as="geometry" />
        </mxCell>
        <mxCell id="etLwFJgJZtQVE6GD_fiM-3" value="Parcela" style="rounded=0;whiteSpace=wrap;html=1;" parent="WIyWlLk6GJQsqaUBKTNV-1" vertex="1">
          <mxGeometry x="630" y="308" width="120" height="60" as="geometry" />
        </mxCell>
        <mxCell id="etLwFJgJZtQVE6GD_fiM-6" value="" style="endArrow=none;html=1;rounded=0;entryX=0;entryY=0.5;entryDx=0;entryDy=0;exitX=1;exitY=0.5;exitDx=0;exitDy=0;" parent="WIyWlLk6GJQsqaUBKTNV-1" source="etLwFJgJZtQVE6GD_fiM-0" target="etLwFJgJZtQVE6GD_fiM-11" edge="1">
          <mxGeometry width="50" height="50" relative="1" as="geometry">
            <mxPoint x="280" y="390" as="sourcePoint" />
            <mxPoint x="480" y="300" as="targetPoint" />
          </mxGeometry>
        </mxCell>
        <mxCell id="etLwFJgJZtQVE6GD_fiM-11" value="Gere" style="rhombus;whiteSpace=wrap;html=1;" parent="WIyWlLk6GJQsqaUBKTNV-1" vertex="1">
          <mxGeometry x="390" y="298" width="80" height="80" as="geometry" />
        </mxCell>
        <mxCell id="etLwFJgJZtQVE6GD_fiM-12" value="" style="endArrow=none;html=1;rounded=0;exitX=1;exitY=0.5;exitDx=0;exitDy=0;entryX=0;entryY=0.5;entryDx=0;entryDy=0;" parent="WIyWlLk6GJQsqaUBKTNV-1" source="etLwFJgJZtQVE6GD_fiM-11" target="etLwFJgJZtQVE6GD_fiM-3" edge="1">
          <mxGeometry width="50" height="50" relative="1" as="geometry">
            <mxPoint x="430" y="350" as="sourcePoint" />
            <mxPoint x="430" y="460" as="targetPoint" />
          </mxGeometry>
        </mxCell>
        <mxCell id="etLwFJgJZtQVE6GD_fiM-16" value="Quinta" style="whiteSpace=wrap;html=1;" parent="WIyWlLk6GJQsqaUBKTNV-1" vertex="1">
          <mxGeometry x="280" y="150" width="120" height="60" as="geometry" />
        </mxCell>
        <mxCell id="etLwFJgJZtQVE6GD_fiM-17" value="Contém" style="rhombus;whiteSpace=wrap;html=1;" parent="WIyWlLk6GJQsqaUBKTNV-1" vertex="1">
          <mxGeometry x="500" y="140" width="80" height="80" as="geometry" />
        </mxCell>
        <mxCell id="etLwFJgJZtQVE6GD_fiM-20" value="" style="endArrow=none;html=1;rounded=0;exitX=1;exitY=0.5;exitDx=0;exitDy=0;entryX=0;entryY=0.5;entryDx=0;entryDy=0;" parent="WIyWlLk6GJQsqaUBKTNV-1" source="etLwFJgJZtQVE6GD_fiM-16" target="etLwFJgJZtQVE6GD_fiM-17" edge="1">
          <mxGeometry width="50" height="50" relative="1" as="geometry">
            <mxPoint x="390" y="290" as="sourcePoint" />
            <mxPoint x="440" y="240" as="targetPoint" />
          </mxGeometry>
        </mxCell>
        <mxCell id="etLwFJgJZtQVE6GD_fiM-21" value="" style="endArrow=none;html=1;rounded=0;entryX=0.5;entryY=1;entryDx=0;entryDy=0;exitX=1;exitY=0.5;exitDx=0;exitDy=0;" parent="WIyWlLk6GJQsqaUBKTNV-1" source="etLwFJgJZtQVE6GD_fiM-17" target="etLwFJgJZtQVE6GD_fiM-2" edge="1">
          <mxGeometry width="50" height="50" relative="1" as="geometry">
            <mxPoint x="500" y="170" as="sourcePoint" />
            <mxPoint x="440" y="240" as="targetPoint" />
          </mxGeometry>
        </mxCell>
        <mxCell id="etLwFJgJZtQVE6GD_fiM-22" value="" style="endArrow=none;html=1;rounded=0;exitX=0.5;exitY=0;exitDx=0;exitDy=0;entryX=1;entryY=0.5;entryDx=0;entryDy=0;" parent="WIyWlLk6GJQsqaUBKTNV-1" source="etLwFJgJZtQVE6GD_fiM-3" target="etLwFJgJZtQVE6GD_fiM-17" edge="1">
          <mxGeometry width="50" height="50" relative="1" as="geometry">
            <mxPoint x="650" y="248" as="sourcePoint" />
            <mxPoint x="440" y="240" as="targetPoint" />
          </mxGeometry>
        </mxCell>
        <mxCell id="etLwFJgJZtQVE6GD_fiM-23" value="1" style="text;html=1;align=center;verticalAlign=middle;resizable=0;points=[];autosize=1;strokeColor=none;fillColor=none;" parent="WIyWlLk6GJQsqaUBKTNV-1" vertex="1">
          <mxGeometry x="400" y="180" width="30" height="30" as="geometry" />
        </mxCell>
        <mxCell id="etLwFJgJZtQVE6GD_fiM-24" value="1" style="text;html=1;align=center;verticalAlign=middle;resizable=0;points=[];autosize=1;strokeColor=none;fillColor=none;" parent="WIyWlLk6GJQsqaUBKTNV-1" vertex="1">
          <mxGeometry x="220" y="338" width="30" height="30" as="geometry" />
        </mxCell>
        <mxCell id="etLwFJgJZtQVE6GD_fiM-25" value="N" style="text;html=1;align=center;verticalAlign=middle;resizable=0;points=[];autosize=1;strokeColor=none;fillColor=none;" parent="WIyWlLk6GJQsqaUBKTNV-1" vertex="1">
          <mxGeometry x="600" y="338" width="30" height="30" as="geometry" />
        </mxCell>
        <mxCell id="etLwFJgJZtQVE6GD_fiM-26" value="N" style="text;html=1;align=center;verticalAlign=middle;resizable=0;points=[];autosize=1;strokeColor=none;fillColor=none;" parent="WIyWlLk6GJQsqaUBKTNV-1" vertex="1">
          <mxGeometry x="675" y="80" width="30" height="30" as="geometry" />
        </mxCell>
        <mxCell id="etLwFJgJZtQVE6GD_fiM-27" value="N" style="text;html=1;align=center;verticalAlign=middle;resizable=0;points=[];autosize=1;strokeColor=none;fillColor=none;" parent="WIyWlLk6GJQsqaUBKTNV-1" vertex="1">
          <mxGeometry x="675" y="278" width="30" height="30" as="geometry" />
        </mxCell>
        <mxCell id="etLwFJgJZtQVE6GD_fiM-29" value="Tipo Edifício" style="ellipse;whiteSpace=wrap;html=1;" parent="WIyWlLk6GJQsqaUBKTNV-1" vertex="1">
          <mxGeometry x="560" y="-40" width="80" height="30" as="geometry" />
        </mxCell>
        <mxCell id="etLwFJgJZtQVE6GD_fiM-30" value="Área" style="ellipse;whiteSpace=wrap;html=1;" parent="WIyWlLk6GJQsqaUBKTNV-1" vertex="1">
          <mxGeometry x="600" y="-80" width="80" height="30" as="geometry" />
        </mxCell>
        <mxCell id="etLwFJgJZtQVE6GD_fiM-31" value="Unidade" style="ellipse;whiteSpace=wrap;html=1;" parent="WIyWlLk6GJQsqaUBKTNV-1" vertex="1">
          <mxGeometry x="740" y="-40" width="80" height="30" as="geometry" />
        </mxCell>
        <mxCell id="etLwFJgJZtQVE6GD_fiM-32" value="" style="endArrow=none;html=1;rounded=0;exitX=0.5;exitY=0;exitDx=0;exitDy=0;" parent="WIyWlLk6GJQsqaUBKTNV-1" source="etLwFJgJZtQVE6GD_fiM-2" target="etLwFJgJZtQVE6GD_fiM-29" edge="1">
          <mxGeometry width="50" height="50" relative="1" as="geometry">
            <mxPoint x="420" y="60" as="sourcePoint" />
            <mxPoint x="470" y="10" as="targetPoint" />
          </mxGeometry>
        </mxCell>
        <mxCell id="etLwFJgJZtQVE6GD_fiM-33" value="" style="endArrow=none;html=1;rounded=0;entryX=0.5;entryY=1;entryDx=0;entryDy=0;exitX=0.5;exitY=0;exitDx=0;exitDy=0;" parent="WIyWlLk6GJQsqaUBKTNV-1" source="etLwFJgJZtQVE6GD_fiM-2" target="etLwFJgJZtQVE6GD_fiM-30" edge="1">
          <mxGeometry width="50" height="50" relative="1" as="geometry">
            <mxPoint x="420" y="60" as="sourcePoint" />
            <mxPoint x="470" y="10" as="targetPoint" />
          </mxGeometry>
        </mxCell>
        <mxCell id="etLwFJgJZtQVE6GD_fiM-34" value="" style="endArrow=none;html=1;rounded=0;entryX=0.5;entryY=1;entryDx=0;entryDy=0;exitX=0.5;exitY=0;exitDx=0;exitDy=0;" parent="WIyWlLk6GJQsqaUBKTNV-1" source="etLwFJgJZtQVE6GD_fiM-2" target="etLwFJgJZtQVE6GD_fiM-31" edge="1">
          <mxGeometry width="50" height="50" relative="1" as="geometry">
            <mxPoint x="420" y="60" as="sourcePoint" />
            <mxPoint x="470" y="10" as="targetPoint" />
          </mxGeometry>
        </mxCell>
        <mxCell id="etLwFJgJZtQVE6GD_fiM-35" value="Área" style="ellipse;whiteSpace=wrap;html=1;" parent="WIyWlLk6GJQsqaUBKTNV-1" vertex="1">
          <mxGeometry x="790" y="180" width="80" height="30" as="geometry" />
        </mxCell>
        <mxCell id="etLwFJgJZtQVE6GD_fiM-37" value="" style="endArrow=none;html=1;rounded=0;entryX=0.5;entryY=1;entryDx=0;entryDy=0;exitX=1;exitY=0;exitDx=0;exitDy=0;" parent="WIyWlLk6GJQsqaUBKTNV-1" source="etLwFJgJZtQVE6GD_fiM-3" target="etLwFJgJZtQVE6GD_fiM-35" edge="1">
          <mxGeometry width="50" height="50" relative="1" as="geometry">
            <mxPoint x="485" y="560" as="sourcePoint" />
            <mxPoint x="425" y="650" as="targetPoint" />
          </mxGeometry>
        </mxCell>
        <mxCell id="etLwFJgJZtQVE6GD_fiM-39" value="Plantação" style="whiteSpace=wrap;html=1;" parent="WIyWlLk6GJQsqaUBKTNV-1" vertex="1">
          <mxGeometry x="1030" y="308" width="120" height="60" as="geometry" />
        </mxCell>
        <mxCell id="etLwFJgJZtQVE6GD_fiM-40" style="edgeStyle=orthogonalEdgeStyle;rounded=0;orthogonalLoop=1;jettySize=auto;html=1;exitX=0.5;exitY=1;exitDx=0;exitDy=0;" parent="WIyWlLk6GJQsqaUBKTNV-1" source="etLwFJgJZtQVE6GD_fiM-35" target="etLwFJgJZtQVE6GD_fiM-35" edge="1">
          <mxGeometry relative="1" as="geometry" />
        </mxCell>
        <mxCell id="etLwFJgJZtQVE6GD_fiM-42" value="ID Parcela" style="ellipse;whiteSpace=wrap;html=1;" parent="WIyWlLk6GJQsqaUBKTNV-1" vertex="1">
          <mxGeometry x="690" y="190" width="80" height="30" as="geometry" />
        </mxCell>
        <mxCell id="etLwFJgJZtQVE6GD_fiM-43" value="Designação" style="ellipse;whiteSpace=wrap;html=1;" parent="WIyWlLk6GJQsqaUBKTNV-1" vertex="1">
          <mxGeometry x="860" y="232.5" width="80" height="30" as="geometry" />
        </mxCell>
        <mxCell id="etLwFJgJZtQVE6GD_fiM-46" value="" style="endArrow=none;html=1;rounded=0;entryX=0.5;entryY=1;entryDx=0;entryDy=0;" parent="WIyWlLk6GJQsqaUBKTNV-1" edge="1" target="etLwFJgJZtQVE6GD_fiM-42">
          <mxGeometry width="50" height="50" relative="1" as="geometry">
            <mxPoint x="750" y="310" as="sourcePoint" />
            <mxPoint x="570" y="410" as="targetPoint" />
          </mxGeometry>
        </mxCell>
        <mxCell id="etLwFJgJZtQVE6GD_fiM-47" value="" style="endArrow=none;html=1;rounded=0;exitX=1;exitY=0;exitDx=0;exitDy=0;entryX=0.5;entryY=1;entryDx=0;entryDy=0;" parent="WIyWlLk6GJQsqaUBKTNV-1" source="etLwFJgJZtQVE6GD_fiM-3" target="etLwFJgJZtQVE6GD_fiM-43" edge="1">
          <mxGeometry width="50" height="50" relative="1" as="geometry">
            <mxPoint x="530" y="330" as="sourcePoint" />
            <mxPoint x="580" y="280" as="targetPoint" />
          </mxGeometry>
        </mxCell>
        <mxCell id="etLwFJgJZtQVE6GD_fiM-50" value="Cultiva-se" style="rhombus;whiteSpace=wrap;html=1;" parent="WIyWlLk6GJQsqaUBKTNV-1" vertex="1">
          <mxGeometry x="860" y="298" width="80" height="80" as="geometry" />
        </mxCell>
        <mxCell id="etLwFJgJZtQVE6GD_fiM-51" value="" style="endArrow=none;html=1;rounded=0;exitX=0;exitY=0.5;exitDx=0;exitDy=0;entryX=1;entryY=0.5;entryDx=0;entryDy=0;" parent="WIyWlLk6GJQsqaUBKTNV-1" source="etLwFJgJZtQVE6GD_fiM-50" target="etLwFJgJZtQVE6GD_fiM-3" edge="1">
          <mxGeometry width="50" height="50" relative="1" as="geometry">
            <mxPoint x="530" y="330" as="sourcePoint" />
            <mxPoint x="580" y="280" as="targetPoint" />
          </mxGeometry>
        </mxCell>
        <mxCell id="etLwFJgJZtQVE6GD_fiM-52" value="" style="endArrow=none;html=1;rounded=0;entryX=1;entryY=0.5;entryDx=0;entryDy=0;" parent="WIyWlLk6GJQsqaUBKTNV-1" source="etLwFJgJZtQVE6GD_fiM-39" target="etLwFJgJZtQVE6GD_fiM-50" edge="1">
          <mxGeometry width="50" height="50" relative="1" as="geometry">
            <mxPoint x="530" y="330" as="sourcePoint" />
            <mxPoint x="580" y="280" as="targetPoint" />
          </mxGeometry>
        </mxCell>
        <mxCell id="etLwFJgJZtQVE6GD_fiM-53" value="Designação" style="ellipse;whiteSpace=wrap;html=1;" parent="WIyWlLk6GJQsqaUBKTNV-1" vertex="1">
          <mxGeometry x="700" y="-80" width="80" height="30" as="geometry" />
        </mxCell>
        <mxCell id="etLwFJgJZtQVE6GD_fiM-55" value="" style="endArrow=none;html=1;rounded=0;entryX=0.5;entryY=1;entryDx=0;entryDy=0;exitX=0.5;exitY=0;exitDx=0;exitDy=0;" parent="WIyWlLk6GJQsqaUBKTNV-1" source="etLwFJgJZtQVE6GD_fiM-2" target="etLwFJgJZtQVE6GD_fiM-53" edge="1">
          <mxGeometry width="50" height="50" relative="1" as="geometry">
            <mxPoint x="520" y="240" as="sourcePoint" />
            <mxPoint x="570" y="190" as="targetPoint" />
          </mxGeometry>
        </mxCell>
        <mxCell id="etLwFJgJZtQVE6GD_fiM-56" value="Cultura" style="whiteSpace=wrap;html=1;" parent="WIyWlLk6GJQsqaUBKTNV-1" vertex="1">
          <mxGeometry x="1500" y="308" width="120" height="60" as="geometry" />
        </mxCell>
        <mxCell id="etLwFJgJZtQVE6GD_fiM-57" value="Contém" style="rhombus;whiteSpace=wrap;html=1;" parent="WIyWlLk6GJQsqaUBKTNV-1" vertex="1">
          <mxGeometry x="1280" y="298" width="80" height="80" as="geometry" />
        </mxCell>
        <mxCell id="etLwFJgJZtQVE6GD_fiM-58" value="" style="endArrow=none;html=1;rounded=0;entryX=1;entryY=0.5;entryDx=0;entryDy=0;" parent="WIyWlLk6GJQsqaUBKTNV-1" source="etLwFJgJZtQVE6GD_fiM-57" target="etLwFJgJZtQVE6GD_fiM-39" edge="1">
          <mxGeometry width="50" height="50" relative="1" as="geometry">
            <mxPoint x="530" y="730" as="sourcePoint" />
            <mxPoint x="580" y="680" as="targetPoint" />
          </mxGeometry>
        </mxCell>
        <mxCell id="etLwFJgJZtQVE6GD_fiM-59" value="" style="endArrow=none;html=1;rounded=0;exitX=1;exitY=0.5;exitDx=0;exitDy=0;entryX=0;entryY=0.5;entryDx=0;entryDy=0;" parent="WIyWlLk6GJQsqaUBKTNV-1" source="etLwFJgJZtQVE6GD_fiM-57" target="etLwFJgJZtQVE6GD_fiM-56" edge="1">
          <mxGeometry width="50" height="50" relative="1" as="geometry">
            <mxPoint x="1440" y="338" as="sourcePoint" />
            <mxPoint x="660" y="680" as="targetPoint" />
          </mxGeometry>
        </mxCell>
        <mxCell id="etLwFJgJZtQVE6GD_fiM-60" value="1" style="text;html=1;align=center;verticalAlign=middle;resizable=0;points=[];autosize=1;strokeColor=none;fillColor=none;" parent="WIyWlLk6GJQsqaUBKTNV-1" vertex="1">
          <mxGeometry x="750" y="338" width="30" height="30" as="geometry" />
        </mxCell>
        <mxCell id="etLwFJgJZtQVE6GD_fiM-61" value="N" style="text;html=1;align=center;verticalAlign=middle;resizable=0;points=[];autosize=1;strokeColor=none;fillColor=none;" parent="WIyWlLk6GJQsqaUBKTNV-1" vertex="1">
          <mxGeometry x="1000" y="338" width="30" height="30" as="geometry" />
        </mxCell>
        <mxCell id="etLwFJgJZtQVE6GD_fiM-63" value="1" style="text;html=1;align=center;verticalAlign=middle;resizable=0;points=[];autosize=1;strokeColor=none;fillColor=none;" parent="WIyWlLk6GJQsqaUBKTNV-1" vertex="1">
          <mxGeometry x="1470" y="338" width="30" height="30" as="geometry" />
        </mxCell>
        <mxCell id="etLwFJgJZtQVE6GD_fiM-65" value="1" style="text;html=1;align=center;verticalAlign=middle;resizable=0;points=[];autosize=1;strokeColor=none;fillColor=none;" parent="WIyWlLk6GJQsqaUBKTNV-1" vertex="1">
          <mxGeometry x="1150" y="338" width="30" height="30" as="geometry" />
        </mxCell>
        <mxCell id="etLwFJgJZtQVE6GD_fiM-68" value="Nome Comum" style="ellipse;whiteSpace=wrap;html=1;" parent="WIyWlLk6GJQsqaUBKTNV-1" vertex="1">
          <mxGeometry x="1520" y="490" width="80" height="30" as="geometry" />
        </mxCell>
        <mxCell id="etLwFJgJZtQVE6GD_fiM-69" value="Tipo Cultura" style="ellipse;whiteSpace=wrap;html=1;" parent="WIyWlLk6GJQsqaUBKTNV-1" vertex="1">
          <mxGeometry x="1670" y="368" width="80" height="30" as="geometry" />
        </mxCell>
        <mxCell id="etLwFJgJZtQVE6GD_fiM-70" value="ID Edifício" style="ellipse;whiteSpace=wrap;html=1;" parent="WIyWlLk6GJQsqaUBKTNV-1" vertex="1">
          <mxGeometry x="650" y="-120" width="80" height="30" as="geometry" />
        </mxCell>
        <mxCell id="etLwFJgJZtQVE6GD_fiM-71" value="" style="endArrow=none;html=1;rounded=0;entryX=0.5;entryY=1;entryDx=0;entryDy=0;exitX=0.5;exitY=0;exitDx=0;exitDy=0;" parent="WIyWlLk6GJQsqaUBKTNV-1" source="etLwFJgJZtQVE6GD_fiM-2" target="etLwFJgJZtQVE6GD_fiM-70" edge="1">
          <mxGeometry width="50" height="50" relative="1" as="geometry">
            <mxPoint x="450" y="180" as="sourcePoint" />
            <mxPoint x="500" y="130" as="targetPoint" />
          </mxGeometry>
        </mxCell>
        <mxCell id="etLwFJgJZtQVE6GD_fiM-73" value="" style="endArrow=none;html=1;rounded=0;entryX=0.5;entryY=0;entryDx=0;entryDy=0;exitX=0.5;exitY=1;exitDx=0;exitDy=0;" parent="WIyWlLk6GJQsqaUBKTNV-1" source="etLwFJgJZtQVE6GD_fiM-56" target="etLwFJgJZtQVE6GD_fiM-68" edge="1">
          <mxGeometry width="50" height="50" relative="1" as="geometry">
            <mxPoint x="1480" y="338" as="sourcePoint" />
            <mxPoint x="1530" y="288" as="targetPoint" />
          </mxGeometry>
        </mxCell>
        <mxCell id="etLwFJgJZtQVE6GD_fiM-74" value="" style="endArrow=none;html=1;rounded=0;entryX=0;entryY=0.5;entryDx=0;entryDy=0;exitX=0.5;exitY=1;exitDx=0;exitDy=0;" parent="WIyWlLk6GJQsqaUBKTNV-1" source="etLwFJgJZtQVE6GD_fiM-56" target="etLwFJgJZtQVE6GD_fiM-69" edge="1">
          <mxGeometry width="50" height="50" relative="1" as="geometry">
            <mxPoint x="1480" y="338" as="sourcePoint" />
            <mxPoint x="1530" y="288" as="targetPoint" />
          </mxGeometry>
        </mxCell>
        <mxCell id="etLwFJgJZtQVE6GD_fiM-75" value="Data Inicial" style="ellipse;whiteSpace=wrap;html=1;" parent="WIyWlLk6GJQsqaUBKTNV-1" vertex="1">
          <mxGeometry x="930" y="400" width="80" height="30" as="geometry" />
        </mxCell>
        <mxCell id="etLwFJgJZtQVE6GD_fiM-76" value="Quantidade" style="ellipse;whiteSpace=wrap;html=1;" parent="WIyWlLk6GJQsqaUBKTNV-1" vertex="1">
          <mxGeometry x="1100" y="428" width="80" height="30" as="geometry" />
        </mxCell>
        <mxCell id="etLwFJgJZtQVE6GD_fiM-77" value="Data Final" style="ellipse;whiteSpace=wrap;html=1;" parent="WIyWlLk6GJQsqaUBKTNV-1" vertex="1">
          <mxGeometry x="990" y="430" width="80" height="30" as="geometry" />
        </mxCell>
        <mxCell id="etLwFJgJZtQVE6GD_fiM-78" value="Unidade" style="ellipse;whiteSpace=wrap;html=1;" parent="WIyWlLk6GJQsqaUBKTNV-1" vertex="1">
          <mxGeometry x="1180" y="400" width="80" height="30" as="geometry" />
        </mxCell>
        <mxCell id="etLwFJgJZtQVE6GD_fiM-79" value="" style="endArrow=none;html=1;rounded=0;entryX=0.5;entryY=0;entryDx=0;entryDy=0;exitX=0.5;exitY=1;exitDx=0;exitDy=0;" parent="WIyWlLk6GJQsqaUBKTNV-1" source="etLwFJgJZtQVE6GD_fiM-39" target="etLwFJgJZtQVE6GD_fiM-75" edge="1">
          <mxGeometry width="50" height="50" relative="1" as="geometry">
            <mxPoint x="460" y="770" as="sourcePoint" />
            <mxPoint x="510" y="720" as="targetPoint" />
          </mxGeometry>
        </mxCell>
        <mxCell id="etLwFJgJZtQVE6GD_fiM-80" value="" style="endArrow=none;html=1;rounded=0;entryX=0.5;entryY=0;entryDx=0;entryDy=0;exitX=0.5;exitY=1;exitDx=0;exitDy=0;" parent="WIyWlLk6GJQsqaUBKTNV-1" source="etLwFJgJZtQVE6GD_fiM-39" target="etLwFJgJZtQVE6GD_fiM-77" edge="1">
          <mxGeometry width="50" height="50" relative="1" as="geometry">
            <mxPoint x="460" y="770" as="sourcePoint" />
            <mxPoint x="510" y="720" as="targetPoint" />
          </mxGeometry>
        </mxCell>
        <mxCell id="etLwFJgJZtQVE6GD_fiM-81" value="" style="endArrow=none;html=1;rounded=0;entryX=0.5;entryY=0;entryDx=0;entryDy=0;exitX=0.5;exitY=1;exitDx=0;exitDy=0;" parent="WIyWlLk6GJQsqaUBKTNV-1" source="etLwFJgJZtQVE6GD_fiM-39" target="etLwFJgJZtQVE6GD_fiM-76" edge="1">
          <mxGeometry width="50" height="50" relative="1" as="geometry">
            <mxPoint x="1150" y="370" as="sourcePoint" />
            <mxPoint x="510" y="720" as="targetPoint" />
          </mxGeometry>
        </mxCell>
        <mxCell id="etLwFJgJZtQVE6GD_fiM-82" value="" style="endArrow=none;html=1;rounded=0;exitX=0.5;exitY=0;exitDx=0;exitDy=0;entryX=0.5;entryY=1;entryDx=0;entryDy=0;" parent="WIyWlLk6GJQsqaUBKTNV-1" source="etLwFJgJZtQVE6GD_fiM-78" target="etLwFJgJZtQVE6GD_fiM-39" edge="1">
          <mxGeometry width="50" height="50" relative="1" as="geometry">
            <mxPoint x="460" y="770" as="sourcePoint" />
            <mxPoint x="510" y="720" as="targetPoint" />
          </mxGeometry>
        </mxCell>
        <mxCell id="etLwFJgJZtQVE6GD_fiM-83" value="Fator de Produção" style="whiteSpace=wrap;html=1;" parent="WIyWlLk6GJQsqaUBKTNV-1" vertex="1">
          <mxGeometry x="1497.5" y="-349" width="120" height="60" as="geometry" />
        </mxCell>
        <mxCell id="etLwFJgJZtQVE6GD_fiM-99" value="Operação" style="rounded=0;whiteSpace=wrap;html=1;" parent="WIyWlLk6GJQsqaUBKTNV-1" vertex="1">
          <mxGeometry x="1030" y="-349" width="120" height="60" as="geometry" />
        </mxCell>
        <mxCell id="etLwFJgJZtQVE6GD_fiM-101" value="ID Plantação" style="ellipse;whiteSpace=wrap;html=1;" parent="WIyWlLk6GJQsqaUBKTNV-1" vertex="1">
          <mxGeometry x="1050" y="470" width="80" height="30" as="geometry" />
        </mxCell>
        <mxCell id="etLwFJgJZtQVE6GD_fiM-102" value="" style="endArrow=none;html=1;rounded=0;entryX=0.5;entryY=1;entryDx=0;entryDy=0;exitX=0.5;exitY=0;exitDx=0;exitDy=0;" parent="WIyWlLk6GJQsqaUBKTNV-1" source="etLwFJgJZtQVE6GD_fiM-101" target="etLwFJgJZtQVE6GD_fiM-39" edge="1">
          <mxGeometry width="50" height="50" relative="1" as="geometry">
            <mxPoint x="900" y="420" as="sourcePoint" />
            <mxPoint x="950" y="370" as="targetPoint" />
          </mxGeometry>
        </mxCell>
        <mxCell id="etLwFJgJZtQVE6GD_fiM-103" value="Pode-se aplicar numa" style="rhombus;whiteSpace=wrap;html=1;" parent="WIyWlLk6GJQsqaUBKTNV-1" vertex="1">
          <mxGeometry x="1340" y="-60" width="100" height="90" as="geometry" />
        </mxCell>
        <mxCell id="etLwFJgJZtQVE6GD_fiM-105" value="" style="endArrow=none;html=1;rounded=0;exitX=0.5;exitY=0;exitDx=0;exitDy=0;entryX=0.5;entryY=1;entryDx=0;entryDy=0;" parent="WIyWlLk6GJQsqaUBKTNV-1" source="etLwFJgJZtQVE6GD_fiM-39" target="etLwFJgJZtQVE6GD_fiM-103" edge="1">
          <mxGeometry width="50" height="50" relative="1" as="geometry">
            <mxPoint x="1150" y="220" as="sourcePoint" />
            <mxPoint x="1200" y="170" as="targetPoint" />
          </mxGeometry>
        </mxCell>
        <mxCell id="etLwFJgJZtQVE6GD_fiM-106" value="" style="endArrow=none;html=1;rounded=0;entryX=1;entryY=1;entryDx=0;entryDy=0;exitX=0.5;exitY=0;exitDx=0;exitDy=0;" parent="WIyWlLk6GJQsqaUBKTNV-1" source="etLwFJgJZtQVE6GD_fiM-103" target="etLwFJgJZtQVE6GD_fiM-99" edge="1">
          <mxGeometry width="50" height="50" relative="1" as="geometry">
            <mxPoint x="1150" y="220" as="sourcePoint" />
            <mxPoint x="1200" y="170" as="targetPoint" />
          </mxGeometry>
        </mxCell>
        <mxCell id="etLwFJgJZtQVE6GD_fiM-111" value="1" style="text;html=1;align=center;verticalAlign=middle;resizable=0;points=[];autosize=1;strokeColor=none;fillColor=none;" parent="WIyWlLk6GJQsqaUBKTNV-1" vertex="1">
          <mxGeometry x="1110" y="278" width="30" height="30" as="geometry" />
        </mxCell>
        <mxCell id="etLwFJgJZtQVE6GD_fiM-112" value="N" style="text;html=1;align=center;verticalAlign=middle;resizable=0;points=[];autosize=1;strokeColor=none;fillColor=none;" parent="WIyWlLk6GJQsqaUBKTNV-1" vertex="1">
          <mxGeometry x="1130" y="-289" width="30" height="30" as="geometry" />
        </mxCell>
        <mxCell id="etLwFJgJZtQVE6GD_fiM-121" value="ID Operação" style="ellipse;whiteSpace=wrap;html=1;" parent="WIyWlLk6GJQsqaUBKTNV-1" vertex="1">
          <mxGeometry x="1000" y="-469" width="80" height="30" as="geometry" />
        </mxCell>
        <mxCell id="etLwFJgJZtQVE6GD_fiM-122" value="Data Operação" style="ellipse;whiteSpace=wrap;html=1;" parent="WIyWlLk6GJQsqaUBKTNV-1" vertex="1">
          <mxGeometry x="950" y="-419" width="80" height="30" as="geometry" />
        </mxCell>
        <mxCell id="etLwFJgJZtQVE6GD_fiM-123" value="Quantidade" style="ellipse;whiteSpace=wrap;html=1;" parent="WIyWlLk6GJQsqaUBKTNV-1" vertex="1">
          <mxGeometry x="1150" y="-419" width="80" height="30" as="geometry" />
        </mxCell>
        <mxCell id="etLwFJgJZtQVE6GD_fiM-124" value="Unidade" style="ellipse;whiteSpace=wrap;html=1;" parent="WIyWlLk6GJQsqaUBKTNV-1" vertex="1">
          <mxGeometry x="1100" y="-469" width="80" height="30" as="geometry" />
        </mxCell>
        <mxCell id="etLwFJgJZtQVE6GD_fiM-125" value="" style="endArrow=none;html=1;rounded=0;entryX=0.5;entryY=1;entryDx=0;entryDy=0;exitX=0.5;exitY=0;exitDx=0;exitDy=0;" parent="WIyWlLk6GJQsqaUBKTNV-1" source="etLwFJgJZtQVE6GD_fiM-99" target="etLwFJgJZtQVE6GD_fiM-123" edge="1">
          <mxGeometry width="50" height="50" relative="1" as="geometry">
            <mxPoint x="1180" y="-149" as="sourcePoint" />
            <mxPoint x="1230" y="-199" as="targetPoint" />
          </mxGeometry>
        </mxCell>
        <mxCell id="etLwFJgJZtQVE6GD_fiM-126" value="" style="endArrow=none;html=1;rounded=0;entryX=0.5;entryY=1;entryDx=0;entryDy=0;exitX=0.5;exitY=0;exitDx=0;exitDy=0;" parent="WIyWlLk6GJQsqaUBKTNV-1" source="etLwFJgJZtQVE6GD_fiM-99" target="etLwFJgJZtQVE6GD_fiM-124" edge="1">
          <mxGeometry width="50" height="50" relative="1" as="geometry">
            <mxPoint x="1180" y="-149" as="sourcePoint" />
            <mxPoint x="1230" y="-199" as="targetPoint" />
          </mxGeometry>
        </mxCell>
        <mxCell id="etLwFJgJZtQVE6GD_fiM-127" value="" style="endArrow=none;html=1;rounded=0;entryX=0.5;entryY=1;entryDx=0;entryDy=0;exitX=0.5;exitY=0;exitDx=0;exitDy=0;" parent="WIyWlLk6GJQsqaUBKTNV-1" source="etLwFJgJZtQVE6GD_fiM-99" target="etLwFJgJZtQVE6GD_fiM-121" edge="1">
          <mxGeometry width="50" height="50" relative="1" as="geometry">
            <mxPoint x="1180" y="-149" as="sourcePoint" />
            <mxPoint x="1230" y="-199" as="targetPoint" />
          </mxGeometry>
        </mxCell>
        <mxCell id="etLwFJgJZtQVE6GD_fiM-128" value="" style="endArrow=none;html=1;rounded=0;entryX=0.5;entryY=1;entryDx=0;entryDy=0;" parent="WIyWlLk6GJQsqaUBKTNV-1" target="etLwFJgJZtQVE6GD_fiM-122" edge="1">
          <mxGeometry width="50" height="50" relative="1" as="geometry">
            <mxPoint x="1090" y="-349" as="sourcePoint" />
            <mxPoint x="1230" y="-199" as="targetPoint" />
          </mxGeometry>
        </mxCell>
        <mxCell id="etLwFJgJZtQVE6GD_fiM-129" value="Ficha Técnica" style="whiteSpace=wrap;html=1;" parent="WIyWlLk6GJQsqaUBKTNV-1" vertex="1">
          <mxGeometry x="1497.5" y="-599" width="120" height="60" as="geometry" />
        </mxCell>
        <mxCell id="etLwFJgJZtQVE6GD_fiM-131" value="Elemento" style="whiteSpace=wrap;html=1;" parent="WIyWlLk6GJQsqaUBKTNV-1" vertex="1">
          <mxGeometry x="1497.5" y="-859" width="120" height="60" as="geometry" />
        </mxCell>
        <mxCell id="etLwFJgJZtQVE6GD_fiM-132" value="Contém" style="rhombus;whiteSpace=wrap;html=1;" parent="WIyWlLk6GJQsqaUBKTNV-1" vertex="1">
          <mxGeometry x="1517.5" y="-479" width="80" height="80" as="geometry" />
        </mxCell>
        <mxCell id="etLwFJgJZtQVE6GD_fiM-133" value="Contém" style="rhombus;whiteSpace=wrap;html=1;" parent="WIyWlLk6GJQsqaUBKTNV-1" vertex="1">
          <mxGeometry x="1517.5" y="-739" width="80" height="80" as="geometry" />
        </mxCell>
        <mxCell id="etLwFJgJZtQVE6GD_fiM-134" value="" style="endArrow=none;html=1;rounded=0;exitX=0.5;exitY=0;exitDx=0;exitDy=0;entryX=0.5;entryY=1;entryDx=0;entryDy=0;" parent="WIyWlLk6GJQsqaUBKTNV-1" target="etLwFJgJZtQVE6GD_fiM-129" edge="1">
          <mxGeometry width="50" height="50" relative="1" as="geometry">
            <mxPoint x="1542.5" y="-539" as="sourcePoint" />
            <mxPoint x="1467.5" y="-599" as="targetPoint" />
          </mxGeometry>
        </mxCell>
        <mxCell id="etLwFJgJZtQVE6GD_fiM-135" value="" style="endArrow=none;html=1;rounded=0;exitX=0.5;exitY=0;exitDx=0;exitDy=0;entryX=0.5;entryY=1;entryDx=0;entryDy=0;" parent="WIyWlLk6GJQsqaUBKTNV-1" source="etLwFJgJZtQVE6GD_fiM-83" target="etLwFJgJZtQVE6GD_fiM-132" edge="1">
          <mxGeometry width="50" height="50" relative="1" as="geometry">
            <mxPoint x="1417.5" y="-549" as="sourcePoint" />
            <mxPoint x="1467.5" y="-599" as="targetPoint" />
          </mxGeometry>
        </mxCell>
        <mxCell id="etLwFJgJZtQVE6GD_fiM-136" value="" style="endArrow=none;html=1;rounded=0;entryX=0.5;entryY=1;entryDx=0;entryDy=0;exitX=0.5;exitY=0;exitDx=0;exitDy=0;" parent="WIyWlLk6GJQsqaUBKTNV-1" source="etLwFJgJZtQVE6GD_fiM-133" target="etLwFJgJZtQVE6GD_fiM-131" edge="1">
          <mxGeometry width="50" height="50" relative="1" as="geometry">
            <mxPoint x="1417.5" y="-549" as="sourcePoint" />
            <mxPoint x="1467.5" y="-599" as="targetPoint" />
          </mxGeometry>
        </mxCell>
        <mxCell id="etLwFJgJZtQVE6GD_fiM-137" value="" style="endArrow=none;html=1;rounded=0;entryX=0.5;entryY=1;entryDx=0;entryDy=0;exitX=0.5;exitY=0;exitDx=0;exitDy=0;" parent="WIyWlLk6GJQsqaUBKTNV-1" source="etLwFJgJZtQVE6GD_fiM-129" target="etLwFJgJZtQVE6GD_fiM-133" edge="1">
          <mxGeometry width="50" height="50" relative="1" as="geometry">
            <mxPoint x="1417.5" y="-549" as="sourcePoint" />
            <mxPoint x="1467.5" y="-599" as="targetPoint" />
          </mxGeometry>
        </mxCell>
        <mxCell id="etLwFJgJZtQVE6GD_fiM-138" value="1" style="text;html=1;align=center;verticalAlign=middle;resizable=0;points=[];autosize=1;strokeColor=none;fillColor=none;" parent="WIyWlLk6GJQsqaUBKTNV-1" vertex="1">
          <mxGeometry x="1527.5" y="-379" width="30" height="30" as="geometry" />
        </mxCell>
        <mxCell id="etLwFJgJZtQVE6GD_fiM-140" value="" style="endArrow=none;html=1;rounded=0;exitX=0.5;exitY=0;exitDx=0;exitDy=0;entryX=0.5;entryY=1;entryDx=0;entryDy=0;" parent="WIyWlLk6GJQsqaUBKTNV-1" source="etLwFJgJZtQVE6GD_fiM-132" target="etLwFJgJZtQVE6GD_fiM-129" edge="1">
          <mxGeometry width="50" height="50" relative="1" as="geometry">
            <mxPoint x="1557.5" y="-479" as="sourcePoint" />
            <mxPoint x="1542.5" y="-509" as="targetPoint" />
          </mxGeometry>
        </mxCell>
        <mxCell id="etLwFJgJZtQVE6GD_fiM-141" value="N" style="text;html=1;align=center;verticalAlign=middle;resizable=0;points=[];autosize=1;strokeColor=none;fillColor=none;" parent="WIyWlLk6GJQsqaUBKTNV-1" vertex="1">
          <mxGeometry x="1527.5" y="-799" width="30" height="30" as="geometry" />
        </mxCell>
        <mxCell id="etLwFJgJZtQVE6GD_fiM-143" value="1" style="text;html=1;align=center;verticalAlign=middle;resizable=0;points=[];autosize=1;strokeColor=none;fillColor=none;" parent="WIyWlLk6GJQsqaUBKTNV-1" vertex="1">
          <mxGeometry x="1527.5" y="-629" width="30" height="30" as="geometry" />
        </mxCell>
        <mxCell id="etLwFJgJZtQVE6GD_fiM-144" value="1" style="text;html=1;align=center;verticalAlign=middle;resizable=0;points=[];autosize=1;strokeColor=none;fillColor=none;" parent="WIyWlLk6GJQsqaUBKTNV-1" vertex="1">
          <mxGeometry x="1527.5" y="-539" width="30" height="30" as="geometry" />
        </mxCell>
        <mxCell id="etLwFJgJZtQVE6GD_fiM-145" value="Desiganção" style="ellipse;whiteSpace=wrap;html=1;" parent="WIyWlLk6GJQsqaUBKTNV-1" vertex="1">
          <mxGeometry x="1617.5" y="-419" width="80" height="30" as="geometry" />
        </mxCell>
        <mxCell id="etLwFJgJZtQVE6GD_fiM-146" value="Formulação" style="ellipse;whiteSpace=wrap;html=1;" parent="WIyWlLk6GJQsqaUBKTNV-1" vertex="1">
          <mxGeometry x="1677.5" y="-389" width="80" height="30" as="geometry" />
        </mxCell>
        <mxCell id="etLwFJgJZtQVE6GD_fiM-148" value="Fabricante" style="ellipse;whiteSpace=wrap;html=1;" parent="WIyWlLk6GJQsqaUBKTNV-1" vertex="1">
          <mxGeometry x="1677.5" y="-269" width="80" height="30" as="geometry" />
        </mxCell>
        <mxCell id="etLwFJgJZtQVE6GD_fiM-149" value="Tipo Fator de Produção" style="ellipse;whiteSpace=wrap;html=1;" parent="WIyWlLk6GJQsqaUBKTNV-1" vertex="1">
          <mxGeometry x="1737.5" y="-309" width="100" height="40" as="geometry" />
        </mxCell>
        <mxCell id="etLwFJgJZtQVE6GD_fiM-151" value="ID Fator de Produção" style="ellipse;whiteSpace=wrap;html=1;" parent="WIyWlLk6GJQsqaUBKTNV-1" vertex="1">
          <mxGeometry x="1737.5" y="-359" width="100" height="40" as="geometry" />
        </mxCell>
        <mxCell id="etLwFJgJZtQVE6GD_fiM-152" value="Aplicação" style="ellipse;whiteSpace=wrap;html=1;" parent="WIyWlLk6GJQsqaUBKTNV-1" vertex="1">
          <mxGeometry x="1630" y="-230" width="80" height="30" as="geometry" />
        </mxCell>
        <mxCell id="etLwFJgJZtQVE6GD_fiM-153" value="" style="endArrow=none;html=1;rounded=0;entryX=0.5;entryY=1;entryDx=0;entryDy=0;exitX=1;exitY=0.5;exitDx=0;exitDy=0;" parent="WIyWlLk6GJQsqaUBKTNV-1" source="etLwFJgJZtQVE6GD_fiM-83" target="etLwFJgJZtQVE6GD_fiM-145" edge="1">
          <mxGeometry width="50" height="50" relative="1" as="geometry">
            <mxPoint x="1507.5" y="-349" as="sourcePoint" />
            <mxPoint x="1557.5" y="-399" as="targetPoint" />
          </mxGeometry>
        </mxCell>
        <mxCell id="etLwFJgJZtQVE6GD_fiM-154" value="" style="endArrow=none;html=1;rounded=0;entryX=0.5;entryY=1;entryDx=0;entryDy=0;exitX=1;exitY=0.5;exitDx=0;exitDy=0;" parent="WIyWlLk6GJQsqaUBKTNV-1" source="etLwFJgJZtQVE6GD_fiM-83" target="etLwFJgJZtQVE6GD_fiM-146" edge="1">
          <mxGeometry width="50" height="50" relative="1" as="geometry">
            <mxPoint x="1507.5" y="-349" as="sourcePoint" />
            <mxPoint x="1557.5" y="-399" as="targetPoint" />
          </mxGeometry>
        </mxCell>
        <mxCell id="etLwFJgJZtQVE6GD_fiM-155" value="" style="endArrow=none;html=1;rounded=0;entryX=0;entryY=0.5;entryDx=0;entryDy=0;exitX=1;exitY=0.5;exitDx=0;exitDy=0;" parent="WIyWlLk6GJQsqaUBKTNV-1" source="etLwFJgJZtQVE6GD_fiM-83" target="etLwFJgJZtQVE6GD_fiM-151" edge="1">
          <mxGeometry width="50" height="50" relative="1" as="geometry">
            <mxPoint x="1507.5" y="-349" as="sourcePoint" />
            <mxPoint x="1557.5" y="-399" as="targetPoint" />
          </mxGeometry>
        </mxCell>
        <mxCell id="etLwFJgJZtQVE6GD_fiM-156" value="" style="endArrow=none;html=1;rounded=0;entryX=0;entryY=0.5;entryDx=0;entryDy=0;exitX=1;exitY=0.5;exitDx=0;exitDy=0;" parent="WIyWlLk6GJQsqaUBKTNV-1" source="etLwFJgJZtQVE6GD_fiM-83" target="etLwFJgJZtQVE6GD_fiM-149" edge="1">
          <mxGeometry width="50" height="50" relative="1" as="geometry">
            <mxPoint x="1507.5" y="-349" as="sourcePoint" />
            <mxPoint x="1557.5" y="-399" as="targetPoint" />
          </mxGeometry>
        </mxCell>
        <mxCell id="etLwFJgJZtQVE6GD_fiM-157" value="" style="endArrow=none;html=1;rounded=0;entryX=0.5;entryY=0;entryDx=0;entryDy=0;exitX=1;exitY=0.5;exitDx=0;exitDy=0;" parent="WIyWlLk6GJQsqaUBKTNV-1" source="etLwFJgJZtQVE6GD_fiM-83" target="etLwFJgJZtQVE6GD_fiM-148" edge="1">
          <mxGeometry width="50" height="50" relative="1" as="geometry">
            <mxPoint x="1507.5" y="-349" as="sourcePoint" />
            <mxPoint x="1557.5" y="-399" as="targetPoint" />
          </mxGeometry>
        </mxCell>
        <mxCell id="etLwFJgJZtQVE6GD_fiM-158" value="" style="endArrow=none;html=1;rounded=0;entryX=0.5;entryY=0;entryDx=0;entryDy=0;exitX=1;exitY=0.5;exitDx=0;exitDy=0;" parent="WIyWlLk6GJQsqaUBKTNV-1" source="etLwFJgJZtQVE6GD_fiM-83" target="etLwFJgJZtQVE6GD_fiM-152" edge="1">
          <mxGeometry width="50" height="50" relative="1" as="geometry">
            <mxPoint x="1507.5" y="-349" as="sourcePoint" />
            <mxPoint x="1657.5000000000005" y="-239" as="targetPoint" />
          </mxGeometry>
        </mxCell>
        <mxCell id="etLwFJgJZtQVE6GD_fiM-159" value="Quantidade" style="ellipse;whiteSpace=wrap;html=1;" parent="WIyWlLk6GJQsqaUBKTNV-1" vertex="1">
          <mxGeometry x="1697.5" y="-609" width="80" height="30" as="geometry" />
        </mxCell>
        <mxCell id="etLwFJgJZtQVE6GD_fiM-160" value="" style="endArrow=none;html=1;rounded=0;entryX=0;entryY=0.5;entryDx=0;entryDy=0;exitX=1;exitY=0.5;exitDx=0;exitDy=0;" parent="WIyWlLk6GJQsqaUBKTNV-1" source="etLwFJgJZtQVE6GD_fiM-129" target="etLwFJgJZtQVE6GD_fiM-159" edge="1">
          <mxGeometry width="50" height="50" relative="1" as="geometry">
            <mxPoint x="1507.5" y="-549" as="sourcePoint" />
            <mxPoint x="1557.5" y="-599" as="targetPoint" />
          </mxGeometry>
        </mxCell>
        <mxCell id="etLwFJgJZtQVE6GD_fiM-162" value="Designação" style="ellipse;whiteSpace=wrap;html=1;" parent="WIyWlLk6GJQsqaUBKTNV-1" vertex="1">
          <mxGeometry x="1517.5" y="-929" width="80" height="30" as="geometry" />
        </mxCell>
        <mxCell id="etLwFJgJZtQVE6GD_fiM-165" value="" style="endArrow=none;html=1;rounded=0;entryX=0.5;entryY=1;entryDx=0;entryDy=0;exitX=0.5;exitY=0;exitDx=0;exitDy=0;" parent="WIyWlLk6GJQsqaUBKTNV-1" source="etLwFJgJZtQVE6GD_fiM-131" target="etLwFJgJZtQVE6GD_fiM-162" edge="1">
          <mxGeometry width="50" height="50" relative="1" as="geometry">
            <mxPoint x="1507.5" y="-549" as="sourcePoint" />
            <mxPoint x="1557.5" y="-599" as="targetPoint" />
          </mxGeometry>
        </mxCell>
        <mxCell id="etLwFJgJZtQVE6GD_fiM-167" value="ID Ficha" style="ellipse;whiteSpace=wrap;html=1;" parent="WIyWlLk6GJQsqaUBKTNV-1" vertex="1">
          <mxGeometry x="1777.5" y="-584" width="80" height="30" as="geometry" />
        </mxCell>
        <mxCell id="etLwFJgJZtQVE6GD_fiM-168" value="" style="endArrow=none;html=1;rounded=0;entryX=0;entryY=0.5;entryDx=0;entryDy=0;exitX=1;exitY=0.5;exitDx=0;exitDy=0;" parent="WIyWlLk6GJQsqaUBKTNV-1" source="etLwFJgJZtQVE6GD_fiM-129" target="etLwFJgJZtQVE6GD_fiM-167" edge="1">
          <mxGeometry width="50" height="50" relative="1" as="geometry">
            <mxPoint x="1497.5" y="-549" as="sourcePoint" />
            <mxPoint x="1547.5" y="-599" as="targetPoint" />
          </mxGeometry>
        </mxCell>
        <mxCell id="etLwFJgJZtQVE6GD_fiM-172" value="Especíe" style="ellipse;whiteSpace=wrap;html=1;" parent="WIyWlLk6GJQsqaUBKTNV-1" vertex="1">
          <mxGeometry x="1470" y="450" width="80" height="30" as="geometry" />
        </mxCell>
        <mxCell id="etLwFJgJZtQVE6GD_fiM-173" value="Floração" style="ellipse;whiteSpace=wrap;html=1;" parent="WIyWlLk6GJQsqaUBKTNV-1" vertex="1">
          <mxGeometry x="1620" y="410" width="80" height="30" as="geometry" />
        </mxCell>
        <mxCell id="etLwFJgJZtQVE6GD_fiM-174" value="Colheita" style="ellipse;whiteSpace=wrap;html=1;" parent="WIyWlLk6GJQsqaUBKTNV-1" vertex="1">
          <mxGeometry x="1420" y="410" width="80" height="30" as="geometry" />
        </mxCell>
        <mxCell id="etLwFJgJZtQVE6GD_fiM-177" value="Varieadade" style="ellipse;whiteSpace=wrap;html=1;" parent="WIyWlLk6GJQsqaUBKTNV-1" vertex="1">
          <mxGeometry x="1570" y="450" width="80" height="30" as="geometry" />
        </mxCell>
        <mxCell id="etLwFJgJZtQVE6GD_fiM-178" value="" style="endArrow=none;html=1;rounded=0;entryX=0.5;entryY=1;entryDx=0;entryDy=0;exitX=0.5;exitY=0;exitDx=0;exitDy=0;" parent="WIyWlLk6GJQsqaUBKTNV-1" source="etLwFJgJZtQVE6GD_fiM-174" target="etLwFJgJZtQVE6GD_fiM-56" edge="1">
          <mxGeometry width="50" height="50" relative="1" as="geometry">
            <mxPoint x="1370" y="500" as="sourcePoint" />
            <mxPoint x="1420" y="450" as="targetPoint" />
          </mxGeometry>
        </mxCell>
        <mxCell id="etLwFJgJZtQVE6GD_fiM-179" value="" style="endArrow=none;html=1;rounded=0;entryX=0.5;entryY=1;entryDx=0;entryDy=0;exitX=0.5;exitY=0;exitDx=0;exitDy=0;" parent="WIyWlLk6GJQsqaUBKTNV-1" source="etLwFJgJZtQVE6GD_fiM-172" target="etLwFJgJZtQVE6GD_fiM-56" edge="1">
          <mxGeometry width="50" height="50" relative="1" as="geometry">
            <mxPoint x="1370" y="500" as="sourcePoint" />
            <mxPoint x="1420" y="450" as="targetPoint" />
          </mxGeometry>
        </mxCell>
        <mxCell id="etLwFJgJZtQVE6GD_fiM-180" value="" style="endArrow=none;html=1;rounded=0;entryX=0.5;entryY=1;entryDx=0;entryDy=0;exitX=0.5;exitY=0;exitDx=0;exitDy=0;" parent="WIyWlLk6GJQsqaUBKTNV-1" source="etLwFJgJZtQVE6GD_fiM-177" target="etLwFJgJZtQVE6GD_fiM-56" edge="1">
          <mxGeometry width="50" height="50" relative="1" as="geometry">
            <mxPoint x="1370" y="500" as="sourcePoint" />
            <mxPoint x="1420" y="450" as="targetPoint" />
          </mxGeometry>
        </mxCell>
        <mxCell id="etLwFJgJZtQVE6GD_fiM-181" value="" style="endArrow=none;html=1;rounded=0;exitX=0.5;exitY=0;exitDx=0;exitDy=0;entryX=0.5;entryY=1;entryDx=0;entryDy=0;" parent="WIyWlLk6GJQsqaUBKTNV-1" source="etLwFJgJZtQVE6GD_fiM-173" target="etLwFJgJZtQVE6GD_fiM-56" edge="1">
          <mxGeometry width="50" height="50" relative="1" as="geometry">
            <mxPoint x="1370" y="500" as="sourcePoint" />
            <mxPoint x="1560" y="370" as="targetPoint" />
          </mxGeometry>
        </mxCell>
        <mxCell id="etLwFJgJZtQVE6GD_fiM-186" value="Regista no" style="rhombus;whiteSpace=wrap;html=1;" parent="WIyWlLk6GJQsqaUBKTNV-1" vertex="1">
          <mxGeometry x="120" y="510" width="80" height="80" as="geometry" />
        </mxCell>
        <mxCell id="etLwFJgJZtQVE6GD_fiM-187" value="Caderno de Campo" style="rounded=0;whiteSpace=wrap;html=1;" parent="WIyWlLk6GJQsqaUBKTNV-1" vertex="1">
          <mxGeometry x="355" y="520" width="120" height="60" as="geometry" />
        </mxCell>
        <mxCell id="etLwFJgJZtQVE6GD_fiM-188" value="" style="endArrow=none;html=1;rounded=0;entryX=0.5;entryY=1;entryDx=0;entryDy=0;exitX=0.5;exitY=0;exitDx=0;exitDy=0;" parent="WIyWlLk6GJQsqaUBKTNV-1" source="etLwFJgJZtQVE6GD_fiM-186" target="etLwFJgJZtQVE6GD_fiM-0" edge="1">
          <mxGeometry width="50" height="50" relative="1" as="geometry">
            <mxPoint x="450" y="600" as="sourcePoint" />
            <mxPoint x="500" y="550" as="targetPoint" />
          </mxGeometry>
        </mxCell>
        <mxCell id="etLwFJgJZtQVE6GD_fiM-189" value="" style="endArrow=none;html=1;rounded=0;exitX=0;exitY=0.5;exitDx=0;exitDy=0;entryX=1;entryY=0.5;entryDx=0;entryDy=0;" parent="WIyWlLk6GJQsqaUBKTNV-1" source="etLwFJgJZtQVE6GD_fiM-187" target="etLwFJgJZtQVE6GD_fiM-186" edge="1">
          <mxGeometry width="50" height="50" relative="1" as="geometry">
            <mxPoint x="450" y="690" as="sourcePoint" />
            <mxPoint x="500" y="640" as="targetPoint" />
          </mxGeometry>
        </mxCell>
        <mxCell id="etLwFJgJZtQVE6GD_fiM-190" value="1" style="text;html=1;align=center;verticalAlign=middle;resizable=0;points=[];autosize=1;strokeColor=none;fillColor=none;" parent="WIyWlLk6GJQsqaUBKTNV-1" vertex="1">
          <mxGeometry x="130" y="368" width="30" height="30" as="geometry" />
        </mxCell>
        <mxCell id="etLwFJgJZtQVE6GD_fiM-191" value="1" style="text;html=1;align=center;verticalAlign=middle;resizable=0;points=[];autosize=1;strokeColor=none;fillColor=none;" parent="WIyWlLk6GJQsqaUBKTNV-1" vertex="1">
          <mxGeometry x="330" y="550" width="30" height="30" as="geometry" />
        </mxCell>
        <mxCell id="etLwFJgJZtQVE6GD_fiM-192" value="Executa" style="rhombus;whiteSpace=wrap;html=1;" parent="WIyWlLk6GJQsqaUBKTNV-1" vertex="1">
          <mxGeometry x="480" y="-360" width="80" height="80" as="geometry" />
        </mxCell>
        <mxCell id="etLwFJgJZtQVE6GD_fiM-193" value="" style="endArrow=none;html=1;rounded=0;entryX=0;entryY=0.5;entryDx=0;entryDy=0;exitX=0.5;exitY=0;exitDx=0;exitDy=0;" parent="WIyWlLk6GJQsqaUBKTNV-1" source="etLwFJgJZtQVE6GD_fiM-0" target="etLwFJgJZtQVE6GD_fiM-192" edge="1">
          <mxGeometry width="50" height="50" relative="1" as="geometry">
            <mxPoint x="850" y="30" as="sourcePoint" />
            <mxPoint x="900" y="-20" as="targetPoint" />
            <Array as="points">
              <mxPoint x="160" y="-320" />
            </Array>
          </mxGeometry>
        </mxCell>
        <mxCell id="etLwFJgJZtQVE6GD_fiM-194" value="1" style="text;html=1;align=center;verticalAlign=middle;resizable=0;points=[];autosize=1;strokeColor=none;fillColor=none;" parent="WIyWlLk6GJQsqaUBKTNV-1" vertex="1">
          <mxGeometry x="130" y="278" width="30" height="30" as="geometry" />
        </mxCell>
        <mxCell id="etLwFJgJZtQVE6GD_fiM-195" value="" style="endArrow=none;html=1;rounded=0;entryX=0;entryY=0.5;entryDx=0;entryDy=0;exitX=1;exitY=0.5;exitDx=0;exitDy=0;" parent="WIyWlLk6GJQsqaUBKTNV-1" source="etLwFJgJZtQVE6GD_fiM-192" target="etLwFJgJZtQVE6GD_fiM-99" edge="1">
          <mxGeometry width="50" height="50" relative="1" as="geometry">
            <mxPoint x="850" y="30" as="sourcePoint" />
            <mxPoint x="900" y="-20" as="targetPoint" />
            <Array as="points">
              <mxPoint x="880" y="-320" />
            </Array>
          </mxGeometry>
        </mxCell>
        <mxCell id="etLwFJgJZtQVE6GD_fiM-196" value="N" style="text;html=1;align=center;verticalAlign=middle;resizable=0;points=[];autosize=1;strokeColor=none;fillColor=none;" parent="WIyWlLk6GJQsqaUBKTNV-1" vertex="1">
          <mxGeometry x="1000" y="-349" width="30" height="30" as="geometry" />
        </mxCell>
        <mxCell id="etLwFJgJZtQVE6GD_fiM-197" value="Estação Meteorológica" style="rounded=0;whiteSpace=wrap;html=1;" parent="WIyWlLk6GJQsqaUBKTNV-1" vertex="1">
          <mxGeometry x="100" y="720" width="120" height="60" as="geometry" />
        </mxCell>
        <mxCell id="etLwFJgJZtQVE6GD_fiM-198" value="Sensor" style="rounded=0;whiteSpace=wrap;html=1;" parent="WIyWlLk6GJQsqaUBKTNV-1" vertex="1">
          <mxGeometry x="700" y="580" width="120" height="60" as="geometry" />
        </mxCell>
        <mxCell id="etLwFJgJZtQVE6GD_fiM-200" value="" style="endArrow=none;html=1;rounded=0;entryX=0.5;entryY=1;entryDx=0;entryDy=0;exitX=0.5;exitY=0;exitDx=0;exitDy=0;" parent="WIyWlLk6GJQsqaUBKTNV-1" source="etLwFJgJZtQVE6GD_fiM-197" target="etLwFJgJZtQVE6GD_fiM-186" edge="1">
          <mxGeometry width="50" height="50" relative="1" as="geometry">
            <mxPoint x="890" y="740" as="sourcePoint" />
            <mxPoint x="940" y="690" as="targetPoint" />
          </mxGeometry>
        </mxCell>
        <mxCell id="etLwFJgJZtQVE6GD_fiM-201" value="1" style="text;html=1;align=center;verticalAlign=middle;resizable=0;points=[];autosize=1;strokeColor=none;fillColor=none;" parent="WIyWlLk6GJQsqaUBKTNV-1" vertex="1">
          <mxGeometry x="130" y="690" width="30" height="30" as="geometry" />
        </mxCell>
        <mxCell id="etLwFJgJZtQVE6GD_fiM-202" value="Contém" style="rhombus;whiteSpace=wrap;html=1;" parent="WIyWlLk6GJQsqaUBKTNV-1" vertex="1">
          <mxGeometry x="320" y="710" width="80" height="80" as="geometry" />
        </mxCell>
        <mxCell id="etLwFJgJZtQVE6GD_fiM-203" value="" style="endArrow=none;html=1;rounded=0;exitX=1;exitY=0.5;exitDx=0;exitDy=0;entryX=0;entryY=0.5;entryDx=0;entryDy=0;" parent="WIyWlLk6GJQsqaUBKTNV-1" source="etLwFJgJZtQVE6GD_fiM-197" target="etLwFJgJZtQVE6GD_fiM-202" edge="1">
          <mxGeometry width="50" height="50" relative="1" as="geometry">
            <mxPoint x="890" y="640" as="sourcePoint" />
            <mxPoint x="940" y="590" as="targetPoint" />
          </mxGeometry>
        </mxCell>
        <mxCell id="etLwFJgJZtQVE6GD_fiM-204" value="" style="endArrow=none;html=1;rounded=0;exitX=1;exitY=0.5;exitDx=0;exitDy=0;entryX=0;entryY=0.5;entryDx=0;entryDy=0;" parent="WIyWlLk6GJQsqaUBKTNV-1" source="etLwFJgJZtQVE6GD_fiM-202" target="JGmFMy4wq7cBbfJldcHV-5" edge="1">
          <mxGeometry width="50" height="50" relative="1" as="geometry">
            <mxPoint x="890" y="640" as="sourcePoint" />
            <mxPoint x="940" y="590" as="targetPoint" />
          </mxGeometry>
        </mxCell>
        <mxCell id="etLwFJgJZtQVE6GD_fiM-205" value="1" style="text;html=1;align=center;verticalAlign=middle;resizable=0;points=[];autosize=1;strokeColor=none;fillColor=none;" parent="WIyWlLk6GJQsqaUBKTNV-1" vertex="1">
          <mxGeometry x="220" y="750" width="30" height="30" as="geometry" />
        </mxCell>
        <mxCell id="etLwFJgJZtQVE6GD_fiM-206" value="N" style="text;html=1;align=center;verticalAlign=middle;resizable=0;points=[];autosize=1;strokeColor=none;fillColor=none;" parent="WIyWlLk6GJQsqaUBKTNV-1" vertex="1">
          <mxGeometry x="470" y="750" width="30" height="30" as="geometry" />
        </mxCell>
        <mxCell id="etLwFJgJZtQVE6GD_fiM-207" value="ID Sensor" style="ellipse;whiteSpace=wrap;html=1;" parent="WIyWlLk6GJQsqaUBKTNV-1" vertex="1">
          <mxGeometry x="900" y="550" width="80" height="30" as="geometry" />
        </mxCell>
        <mxCell id="etLwFJgJZtQVE6GD_fiM-209" value="Unidade" style="ellipse;whiteSpace=wrap;html=1;" parent="WIyWlLk6GJQsqaUBKTNV-1" vertex="1">
          <mxGeometry x="900" y="595" width="80" height="30" as="geometry" />
        </mxCell>
        <mxCell id="etLwFJgJZtQVE6GD_fiM-210" value="Tipo Sensor" style="ellipse;whiteSpace=wrap;html=1;" parent="WIyWlLk6GJQsqaUBKTNV-1" vertex="1">
          <mxGeometry x="900" y="640" width="80" height="30" as="geometry" />
        </mxCell>
        <mxCell id="etLwFJgJZtQVE6GD_fiM-211" value="" style="endArrow=none;html=1;rounded=0;exitX=1;exitY=0.5;exitDx=0;exitDy=0;entryX=0;entryY=0.5;entryDx=0;entryDy=0;" parent="WIyWlLk6GJQsqaUBKTNV-1" source="etLwFJgJZtQVE6GD_fiM-198" target="etLwFJgJZtQVE6GD_fiM-207" edge="1">
          <mxGeometry width="50" height="50" relative="1" as="geometry">
            <mxPoint x="1070" y="540" as="sourcePoint" />
            <mxPoint x="1120" y="490" as="targetPoint" />
          </mxGeometry>
        </mxCell>
        <mxCell id="etLwFJgJZtQVE6GD_fiM-213" value="" style="endArrow=none;html=1;rounded=0;exitX=1;exitY=0.5;exitDx=0;exitDy=0;entryX=0;entryY=0.5;entryDx=0;entryDy=0;" parent="WIyWlLk6GJQsqaUBKTNV-1" source="etLwFJgJZtQVE6GD_fiM-198" target="etLwFJgJZtQVE6GD_fiM-209" edge="1">
          <mxGeometry width="50" height="50" relative="1" as="geometry">
            <mxPoint x="1070" y="540" as="sourcePoint" />
            <mxPoint x="1120" y="490" as="targetPoint" />
          </mxGeometry>
        </mxCell>
        <mxCell id="etLwFJgJZtQVE6GD_fiM-214" value="" style="endArrow=none;html=1;rounded=0;exitX=1;exitY=0.5;exitDx=0;exitDy=0;entryX=0;entryY=0.5;entryDx=0;entryDy=0;" parent="WIyWlLk6GJQsqaUBKTNV-1" source="etLwFJgJZtQVE6GD_fiM-198" target="etLwFJgJZtQVE6GD_fiM-210" edge="1">
          <mxGeometry width="50" height="50" relative="1" as="geometry">
            <mxPoint x="1070" y="540" as="sourcePoint" />
            <mxPoint x="1120" y="490" as="targetPoint" />
          </mxGeometry>
        </mxCell>
        <mxCell id="etLwFJgJZtQVE6GD_fiM-217" value="ID Quinta" style="ellipse;whiteSpace=wrap;html=1;" parent="WIyWlLk6GJQsqaUBKTNV-1" vertex="1">
          <mxGeometry x="250" y="70" width="80" height="30" as="geometry" />
        </mxCell>
        <mxCell id="etLwFJgJZtQVE6GD_fiM-218" value="Designação" style="ellipse;whiteSpace=wrap;html=1;" parent="WIyWlLk6GJQsqaUBKTNV-1" vertex="1">
          <mxGeometry x="360" y="70" width="80" height="30" as="geometry" />
        </mxCell>
        <mxCell id="etLwFJgJZtQVE6GD_fiM-219" value="" style="endArrow=none;html=1;rounded=0;exitX=0.5;exitY=0;exitDx=0;exitDy=0;entryX=0.5;entryY=1;entryDx=0;entryDy=0;" parent="WIyWlLk6GJQsqaUBKTNV-1" source="etLwFJgJZtQVE6GD_fiM-16" target="etLwFJgJZtQVE6GD_fiM-217" edge="1">
          <mxGeometry width="50" height="50" relative="1" as="geometry">
            <mxPoint x="890" y="140" as="sourcePoint" />
            <mxPoint x="940" y="90" as="targetPoint" />
          </mxGeometry>
        </mxCell>
        <mxCell id="etLwFJgJZtQVE6GD_fiM-220" value="" style="endArrow=none;html=1;rounded=0;exitX=0.5;exitY=0;exitDx=0;exitDy=0;entryX=0.5;entryY=1;entryDx=0;entryDy=0;" parent="WIyWlLk6GJQsqaUBKTNV-1" source="etLwFJgJZtQVE6GD_fiM-16" target="etLwFJgJZtQVE6GD_fiM-218" edge="1">
          <mxGeometry width="50" height="50" relative="1" as="geometry">
            <mxPoint x="890" y="140" as="sourcePoint" />
            <mxPoint x="940" y="90" as="targetPoint" />
          </mxGeometry>
        </mxCell>
        <mxCell id="JGmFMy4wq7cBbfJldcHV-0" value="Poda" style="ellipse;whiteSpace=wrap;html=1;" parent="WIyWlLk6GJQsqaUBKTNV-1" vertex="1">
          <mxGeometry x="1690" y="323" width="80" height="30" as="geometry" />
        </mxCell>
        <mxCell id="JGmFMy4wq7cBbfJldcHV-2" value="" style="endArrow=none;html=1;rounded=0;entryX=1;entryY=0.5;entryDx=0;entryDy=0;exitX=0;exitY=0.5;exitDx=0;exitDy=0;" parent="WIyWlLk6GJQsqaUBKTNV-1" source="JGmFMy4wq7cBbfJldcHV-0" target="etLwFJgJZtQVE6GD_fiM-56" edge="1">
          <mxGeometry width="50" height="50" relative="1" as="geometry">
            <mxPoint x="1440" y="450" as="sourcePoint" />
            <mxPoint x="1490" y="400" as="targetPoint" />
          </mxGeometry>
        </mxCell>
        <mxCell id="JGmFMy4wq7cBbfJldcHV-3" value="Sementeira" style="ellipse;whiteSpace=wrap;html=1;" parent="WIyWlLk6GJQsqaUBKTNV-1" vertex="1">
          <mxGeometry x="1670" y="268" width="80" height="30" as="geometry" />
        </mxCell>
        <mxCell id="JGmFMy4wq7cBbfJldcHV-4" value="" style="endArrow=none;html=1;rounded=0;entryX=0;entryY=0.5;entryDx=0;entryDy=0;exitX=0.5;exitY=0;exitDx=0;exitDy=0;" parent="WIyWlLk6GJQsqaUBKTNV-1" source="etLwFJgJZtQVE6GD_fiM-56" target="JGmFMy4wq7cBbfJldcHV-3" edge="1">
          <mxGeometry width="50" height="50" relative="1" as="geometry">
            <mxPoint x="1440" y="450" as="sourcePoint" />
            <mxPoint x="1490" y="400" as="targetPoint" />
          </mxGeometry>
        </mxCell>
        <mxCell id="JGmFMy4wq7cBbfJldcHV-5" value="Registo do Sensor" style="rounded=0;whiteSpace=wrap;html=1;" parent="WIyWlLk6GJQsqaUBKTNV-1" vertex="1">
          <mxGeometry x="500" y="720" width="120" height="60" as="geometry" />
        </mxCell>
        <mxCell id="JGmFMy4wq7cBbfJldcHV-6" value="Regista" style="rhombus;whiteSpace=wrap;html=1;" parent="WIyWlLk6GJQsqaUBKTNV-1" vertex="1">
          <mxGeometry x="720" y="710" width="80" height="80" as="geometry" />
        </mxCell>
        <mxCell id="JGmFMy4wq7cBbfJldcHV-7" value="" style="endArrow=none;html=1;rounded=0;exitX=1;exitY=0.5;exitDx=0;exitDy=0;entryX=0;entryY=0.5;entryDx=0;entryDy=0;" parent="WIyWlLk6GJQsqaUBKTNV-1" source="JGmFMy4wq7cBbfJldcHV-5" target="JGmFMy4wq7cBbfJldcHV-6" edge="1">
          <mxGeometry width="50" height="50" relative="1" as="geometry">
            <mxPoint x="790" y="710" as="sourcePoint" />
            <mxPoint x="840" y="660" as="targetPoint" />
          </mxGeometry>
        </mxCell>
        <mxCell id="JGmFMy4wq7cBbfJldcHV-8" value="" style="endArrow=none;html=1;rounded=0;exitX=0.5;exitY=0;exitDx=0;exitDy=0;entryX=0.5;entryY=1;entryDx=0;entryDy=0;" parent="WIyWlLk6GJQsqaUBKTNV-1" source="JGmFMy4wq7cBbfJldcHV-6" target="etLwFJgJZtQVE6GD_fiM-198" edge="1">
          <mxGeometry width="50" height="50" relative="1" as="geometry">
            <mxPoint x="790" y="710" as="sourcePoint" />
            <mxPoint x="840" y="660" as="targetPoint" />
          </mxGeometry>
        </mxCell>
        <mxCell id="JGmFMy4wq7cBbfJldcHV-9" value="N" style="text;html=1;align=center;verticalAlign=middle;resizable=0;points=[];autosize=1;strokeColor=none;fillColor=none;" parent="WIyWlLk6GJQsqaUBKTNV-1" vertex="1">
          <mxGeometry x="620" y="750" width="30" height="30" as="geometry" />
        </mxCell>
        <mxCell id="JGmFMy4wq7cBbfJldcHV-10" value="1" style="text;html=1;align=center;verticalAlign=middle;resizable=0;points=[];autosize=1;strokeColor=none;fillColor=none;" parent="WIyWlLk6GJQsqaUBKTNV-1" vertex="1">
          <mxGeometry x="760" y="640" width="30" height="30" as="geometry" />
        </mxCell>
        <mxCell id="JGmFMy4wq7cBbfJldcHV-11" value="Valor" style="ellipse;whiteSpace=wrap;html=1;" parent="WIyWlLk6GJQsqaUBKTNV-1" vertex="1">
          <mxGeometry x="460" y="840" width="80" height="30" as="geometry" />
        </mxCell>
        <mxCell id="JGmFMy4wq7cBbfJldcHV-12" value="Data" style="ellipse;whiteSpace=wrap;html=1;" parent="WIyWlLk6GJQsqaUBKTNV-1" vertex="1">
          <mxGeometry x="580" y="840" width="80" height="30" as="geometry" />
        </mxCell>
        <mxCell id="JGmFMy4wq7cBbfJldcHV-13" value="" style="endArrow=none;html=1;rounded=0;entryX=0.5;entryY=1;entryDx=0;entryDy=0;exitX=0.5;exitY=0;exitDx=0;exitDy=0;" parent="WIyWlLk6GJQsqaUBKTNV-1" source="JGmFMy4wq7cBbfJldcHV-11" target="JGmFMy4wq7cBbfJldcHV-5" edge="1">
          <mxGeometry width="50" height="50" relative="1" as="geometry">
            <mxPoint x="510" y="830" as="sourcePoint" />
            <mxPoint x="570" y="800" as="targetPoint" />
          </mxGeometry>
        </mxCell>
        <mxCell id="JGmFMy4wq7cBbfJldcHV-14" value="" style="endArrow=none;html=1;rounded=0;exitX=0.5;exitY=1;exitDx=0;exitDy=0;entryX=0.5;entryY=0;entryDx=0;entryDy=0;" parent="WIyWlLk6GJQsqaUBKTNV-1" source="JGmFMy4wq7cBbfJldcHV-5" target="JGmFMy4wq7cBbfJldcHV-12" edge="1">
          <mxGeometry width="50" height="50" relative="1" as="geometry">
            <mxPoint x="670" y="710" as="sourcePoint" />
            <mxPoint x="720" y="660" as="targetPoint" />
          </mxGeometry>
        </mxCell>
        <mxCell id="Wxdi5Obsvw719A-NBdkG-0" value="" style="endArrow=none;html=1;rounded=0;entryX=0;entryY=0.5;entryDx=0;entryDy=0;exitX=1;exitY=0.5;exitDx=0;exitDy=0;" edge="1" parent="WIyWlLk6GJQsqaUBKTNV-1" source="Wxdi5Obsvw719A-NBdkG-48" target="etLwFJgJZtQVE6GD_fiM-83">
          <mxGeometry width="50" height="50" relative="1" as="geometry">
            <mxPoint x="1350" y="-209" as="sourcePoint" />
            <mxPoint x="1400" y="-259" as="targetPoint" />
          </mxGeometry>
        </mxCell>
        <mxCell id="Wxdi5Obsvw719A-NBdkG-3" value="1" style="text;html=1;align=center;verticalAlign=middle;resizable=0;points=[];autosize=1;strokeColor=none;fillColor=none;" vertex="1" parent="WIyWlLk6GJQsqaUBKTNV-1">
          <mxGeometry x="1150" y="-349" width="30" height="30" as="geometry" />
        </mxCell>
        <mxCell id="Wxdi5Obsvw719A-NBdkG-4" value="1" style="text;html=1;align=center;verticalAlign=middle;resizable=0;points=[];autosize=1;strokeColor=none;fillColor=none;" vertex="1" parent="WIyWlLk6GJQsqaUBKTNV-1">
          <mxGeometry x="1467.5" y="-319" width="30" height="30" as="geometry" />
        </mxCell>
        <mxCell id="Wxdi5Obsvw719A-NBdkG-5" value="Estado&amp;nbsp;Fenológico" style="ellipse;whiteSpace=wrap;html=1;" vertex="1" parent="WIyWlLk6GJQsqaUBKTNV-1">
          <mxGeometry x="1170" y="230" width="110" height="35" as="geometry" />
        </mxCell>
        <mxCell id="Wxdi5Obsvw719A-NBdkG-6" value="" style="endArrow=none;html=1;rounded=0;entryX=0.5;entryY=1;entryDx=0;entryDy=0;exitX=1;exitY=0;exitDx=0;exitDy=0;" edge="1" parent="WIyWlLk6GJQsqaUBKTNV-1" source="etLwFJgJZtQVE6GD_fiM-39" target="Wxdi5Obsvw719A-NBdkG-5">
          <mxGeometry width="50" height="50" relative="1" as="geometry">
            <mxPoint x="1170" y="290" as="sourcePoint" />
            <mxPoint x="1220" y="240" as="targetPoint" />
          </mxGeometry>
        </mxCell>
        <mxCell id="Wxdi5Obsvw719A-NBdkG-7" value="" style="endArrow=none;html=1;rounded=0;entryX=0.5;entryY=1;entryDx=0;entryDy=0;exitX=0.5;exitY=0;exitDx=0;exitDy=0;" edge="1" parent="WIyWlLk6GJQsqaUBKTNV-1" source="etLwFJgJZtQVE6GD_fiM-198" target="etLwFJgJZtQVE6GD_fiM-3">
          <mxGeometry width="50" height="50" relative="1" as="geometry">
            <mxPoint x="720" y="540" as="sourcePoint" />
            <mxPoint x="770" y="490" as="targetPoint" />
          </mxGeometry>
        </mxCell>
        <mxCell id="Wxdi5Obsvw719A-NBdkG-8" value="1" style="text;html=1;align=center;verticalAlign=middle;resizable=0;points=[];autosize=1;strokeColor=none;fillColor=none;" vertex="1" parent="WIyWlLk6GJQsqaUBKTNV-1">
          <mxGeometry x="660" y="370" width="30" height="30" as="geometry" />
        </mxCell>
        <mxCell id="Wxdi5Obsvw719A-NBdkG-9" value="N" style="text;html=1;align=center;verticalAlign=middle;resizable=0;points=[];autosize=1;strokeColor=none;fillColor=none;" vertex="1" parent="WIyWlLk6GJQsqaUBKTNV-1">
          <mxGeometry x="760" y="550" width="30" height="30" as="geometry" />
        </mxCell>
        <mxCell id="Wxdi5Obsvw719A-NBdkG-10" value="Setor de Rega" style="rounded=0;whiteSpace=wrap;html=1;" vertex="1" parent="WIyWlLk6GJQsqaUBKTNV-1">
          <mxGeometry x="1130" y="20" width="120" height="60" as="geometry" />
        </mxCell>
        <mxCell id="Wxdi5Obsvw719A-NBdkG-11" value="Sistema de Rega" style="rounded=0;whiteSpace=wrap;html=1;" vertex="1" parent="WIyWlLk6GJQsqaUBKTNV-1">
          <mxGeometry x="915" y="20" width="120" height="60" as="geometry" />
        </mxCell>
        <mxCell id="Wxdi5Obsvw719A-NBdkG-12" value="Controlador" style="ellipse;whiteSpace=wrap;html=1;" vertex="1" parent="WIyWlLk6GJQsqaUBKTNV-1">
          <mxGeometry x="1000" y="-60" width="80" height="30" as="geometry" />
        </mxCell>
        <mxCell id="Wxdi5Obsvw719A-NBdkG-13" value="" style="endArrow=none;html=1;rounded=0;entryX=0.5;entryY=1;entryDx=0;entryDy=0;exitX=0.5;exitY=0;exitDx=0;exitDy=0;" edge="1" parent="WIyWlLk6GJQsqaUBKTNV-1" source="Wxdi5Obsvw719A-NBdkG-11" target="Wxdi5Obsvw719A-NBdkG-12">
          <mxGeometry width="50" height="50" relative="1" as="geometry">
            <mxPoint x="960" y="-100" as="sourcePoint" />
            <mxPoint x="1010" y="-150" as="targetPoint" />
          </mxGeometry>
        </mxCell>
        <mxCell id="Wxdi5Obsvw719A-NBdkG-14" value="Plano de Rega" style="ellipse;whiteSpace=wrap;html=1;" vertex="1" parent="WIyWlLk6GJQsqaUBKTNV-1">
          <mxGeometry x="880" y="-60" width="90" height="30" as="geometry" />
        </mxCell>
        <mxCell id="Wxdi5Obsvw719A-NBdkG-15" value="" style="endArrow=none;html=1;rounded=0;entryX=0.5;entryY=1;entryDx=0;entryDy=0;exitX=0.5;exitY=0;exitDx=0;exitDy=0;" edge="1" parent="WIyWlLk6GJQsqaUBKTNV-1" source="Wxdi5Obsvw719A-NBdkG-11" target="Wxdi5Obsvw719A-NBdkG-14">
          <mxGeometry width="50" height="50" relative="1" as="geometry">
            <mxPoint x="960" y="-100" as="sourcePoint" />
            <mxPoint x="1010" y="-150" as="targetPoint" />
          </mxGeometry>
        </mxCell>
        <mxCell id="Wxdi5Obsvw719A-NBdkG-16" value="" style="endArrow=none;html=1;rounded=0;exitX=1;exitY=0.5;exitDx=0;exitDy=0;entryX=0;entryY=0.5;entryDx=0;entryDy=0;" edge="1" parent="WIyWlLk6GJQsqaUBKTNV-1" source="Wxdi5Obsvw719A-NBdkG-11" target="Wxdi5Obsvw719A-NBdkG-10">
          <mxGeometry width="50" height="50" relative="1" as="geometry">
            <mxPoint x="850" y="-100" as="sourcePoint" />
            <mxPoint x="785.0000000000005" y="-90" as="targetPoint" />
          </mxGeometry>
        </mxCell>
        <mxCell id="Wxdi5Obsvw719A-NBdkG-17" value="N" style="text;html=1;align=center;verticalAlign=middle;resizable=0;points=[];autosize=1;strokeColor=none;fillColor=none;" vertex="1" parent="WIyWlLk6GJQsqaUBKTNV-1">
          <mxGeometry x="1100" y="50" width="30" height="30" as="geometry" />
        </mxCell>
        <mxCell id="Wxdi5Obsvw719A-NBdkG-18" value="1" style="text;html=1;align=center;verticalAlign=middle;resizable=0;points=[];autosize=1;strokeColor=none;fillColor=none;" vertex="1" parent="WIyWlLk6GJQsqaUBKTNV-1">
          <mxGeometry x="1035" y="20" width="30" height="30" as="geometry" />
        </mxCell>
        <mxCell id="Wxdi5Obsvw719A-NBdkG-19" value="" style="endArrow=none;html=1;rounded=0;entryX=0.5;entryY=1;entryDx=0;entryDy=0;exitX=0.25;exitY=0;exitDx=0;exitDy=0;" edge="1" parent="WIyWlLk6GJQsqaUBKTNV-1" source="etLwFJgJZtQVE6GD_fiM-39" target="Wxdi5Obsvw719A-NBdkG-10">
          <mxGeometry width="50" height="50" relative="1" as="geometry">
            <mxPoint x="1180" y="150" as="sourcePoint" />
            <mxPoint x="1230" y="100" as="targetPoint" />
          </mxGeometry>
        </mxCell>
        <mxCell id="Wxdi5Obsvw719A-NBdkG-20" value="1" style="text;html=1;align=center;verticalAlign=middle;resizable=0;points=[];autosize=1;strokeColor=none;fillColor=none;" vertex="1" parent="WIyWlLk6GJQsqaUBKTNV-1">
          <mxGeometry x="1180" y="80" width="30" height="30" as="geometry" />
        </mxCell>
        <mxCell id="Wxdi5Obsvw719A-NBdkG-21" value="N" style="text;html=1;align=center;verticalAlign=middle;resizable=0;points=[];autosize=1;strokeColor=none;fillColor=none;" vertex="1" parent="WIyWlLk6GJQsqaUBKTNV-1">
          <mxGeometry x="1035" y="278" width="30" height="30" as="geometry" />
        </mxCell>
        <mxCell id="Wxdi5Obsvw719A-NBdkG-22" value="" style="endArrow=none;html=1;rounded=0;entryX=0;entryY=0.5;entryDx=0;entryDy=0;exitX=1;exitY=0.5;exitDx=0;exitDy=0;" edge="1" parent="WIyWlLk6GJQsqaUBKTNV-1" source="etLwFJgJZtQVE6GD_fiM-2" target="Wxdi5Obsvw719A-NBdkG-11">
          <mxGeometry width="50" height="50" relative="1" as="geometry">
            <mxPoint x="749.9999999999995" y="100" as="sourcePoint" />
            <mxPoint x="850" y="70" as="targetPoint" />
          </mxGeometry>
        </mxCell>
        <mxCell id="Wxdi5Obsvw719A-NBdkG-24" value="Produto" style="rounded=0;whiteSpace=wrap;html=1;" vertex="1" parent="WIyWlLk6GJQsqaUBKTNV-1">
          <mxGeometry x="740" y="-270" width="120" height="60" as="geometry" />
        </mxCell>
        <mxCell id="Wxdi5Obsvw719A-NBdkG-25" value="Designação" style="ellipse;whiteSpace=wrap;html=1;" vertex="1" parent="WIyWlLk6GJQsqaUBKTNV-1">
          <mxGeometry x="710" y="-180" width="80" height="30" as="geometry" />
        </mxCell>
        <mxCell id="Wxdi5Obsvw719A-NBdkG-26" value="ID Produto" style="ellipse;whiteSpace=wrap;html=1;" vertex="1" parent="WIyWlLk6GJQsqaUBKTNV-1">
          <mxGeometry x="820" y="-180" width="80" height="30" as="geometry" />
        </mxCell>
        <mxCell id="Wxdi5Obsvw719A-NBdkG-27" value="Armazem" style="rounded=0;whiteSpace=wrap;html=1;" vertex="1" parent="WIyWlLk6GJQsqaUBKTNV-1">
          <mxGeometry x="370" y="-174" width="120" height="60" as="geometry" />
        </mxCell>
        <mxCell id="Wxdi5Obsvw719A-NBdkG-28" value="Capacidade" style="ellipse;whiteSpace=wrap;html=1;" vertex="1" parent="WIyWlLk6GJQsqaUBKTNV-1">
          <mxGeometry x="230" y="-159" width="80" height="30" as="geometry" />
        </mxCell>
        <mxCell id="Wxdi5Obsvw719A-NBdkG-29" value="" style="endArrow=none;html=1;rounded=0;entryX=1;entryY=0.5;entryDx=0;entryDy=0;exitX=0;exitY=0.5;exitDx=0;exitDy=0;" edge="1" parent="WIyWlLk6GJQsqaUBKTNV-1" source="Wxdi5Obsvw719A-NBdkG-27" target="Wxdi5Obsvw719A-NBdkG-28">
          <mxGeometry width="50" height="50" relative="1" as="geometry">
            <mxPoint x="560" y="-119" as="sourcePoint" />
            <mxPoint x="610" y="-169" as="targetPoint" />
          </mxGeometry>
        </mxCell>
        <mxCell id="Wxdi5Obsvw719A-NBdkG-30" value="" style="endArrow=none;html=1;rounded=0;entryX=0.5;entryY=1;entryDx=0;entryDy=0;exitX=0.5;exitY=0;exitDx=0;exitDy=0;" edge="1" parent="WIyWlLk6GJQsqaUBKTNV-1" source="Wxdi5Obsvw719A-NBdkG-25" target="Wxdi5Obsvw719A-NBdkG-24">
          <mxGeometry width="50" height="50" relative="1" as="geometry">
            <mxPoint x="570" y="-80" as="sourcePoint" />
            <mxPoint x="620" y="-130" as="targetPoint" />
          </mxGeometry>
        </mxCell>
        <mxCell id="Wxdi5Obsvw719A-NBdkG-31" value="" style="endArrow=none;html=1;rounded=0;entryX=0.5;entryY=0;entryDx=0;entryDy=0;exitX=0.5;exitY=1;exitDx=0;exitDy=0;" edge="1" parent="WIyWlLk6GJQsqaUBKTNV-1" source="Wxdi5Obsvw719A-NBdkG-24" target="Wxdi5Obsvw719A-NBdkG-26">
          <mxGeometry width="50" height="50" relative="1" as="geometry">
            <mxPoint x="730" y="-245" as="sourcePoint" />
            <mxPoint x="750" y="-230" as="targetPoint" />
          </mxGeometry>
        </mxCell>
        <mxCell id="Wxdi5Obsvw719A-NBdkG-32" style="edgeStyle=orthogonalEdgeStyle;rounded=0;orthogonalLoop=1;jettySize=auto;html=1;exitX=0.5;exitY=1;exitDx=0;exitDy=0;" edge="1" parent="WIyWlLk6GJQsqaUBKTNV-1" source="Wxdi5Obsvw719A-NBdkG-26" target="Wxdi5Obsvw719A-NBdkG-26">
          <mxGeometry relative="1" as="geometry" />
        </mxCell>
        <mxCell id="Wxdi5Obsvw719A-NBdkG-34" value="1" style="text;html=1;align=center;verticalAlign=middle;resizable=0;points=[];autosize=1;strokeColor=none;fillColor=none;" vertex="1" parent="WIyWlLk6GJQsqaUBKTNV-1">
          <mxGeometry x="1005" y="-289" width="30" height="30" as="geometry" />
        </mxCell>
        <mxCell id="Wxdi5Obsvw719A-NBdkG-35" value="1" style="text;html=1;align=center;verticalAlign=middle;resizable=0;points=[];autosize=1;strokeColor=none;fillColor=none;" vertex="1" parent="WIyWlLk6GJQsqaUBKTNV-1">
          <mxGeometry x="860" y="-240" width="30" height="30" as="geometry" />
        </mxCell>
        <mxCell id="Wxdi5Obsvw719A-NBdkG-36" value="Contém" style="rhombus;whiteSpace=wrap;html=1;" vertex="1" parent="WIyWlLk6GJQsqaUBKTNV-1">
          <mxGeometry x="560" y="-240" width="80" height="80" as="geometry" />
        </mxCell>
        <mxCell id="Wxdi5Obsvw719A-NBdkG-37" value="" style="endArrow=none;html=1;rounded=0;entryX=0;entryY=0.5;entryDx=0;entryDy=0;exitX=1;exitY=0;exitDx=0;exitDy=0;" edge="1" parent="WIyWlLk6GJQsqaUBKTNV-1" source="Wxdi5Obsvw719A-NBdkG-27" target="Wxdi5Obsvw719A-NBdkG-36">
          <mxGeometry width="50" height="50" relative="1" as="geometry">
            <mxPoint x="510" y="-90" as="sourcePoint" />
            <mxPoint x="560" y="-140" as="targetPoint" />
          </mxGeometry>
        </mxCell>
        <mxCell id="Wxdi5Obsvw719A-NBdkG-39" value="" style="endArrow=none;html=1;rounded=0;entryX=0;entryY=0.5;entryDx=0;entryDy=0;exitX=1;exitY=0.5;exitDx=0;exitDy=0;" edge="1" parent="WIyWlLk6GJQsqaUBKTNV-1" source="Wxdi5Obsvw719A-NBdkG-36" target="Wxdi5Obsvw719A-NBdkG-24">
          <mxGeometry width="50" height="50" relative="1" as="geometry">
            <mxPoint x="640" y="-224" as="sourcePoint" />
            <mxPoint x="710" y="-250" as="targetPoint" />
          </mxGeometry>
        </mxCell>
        <mxCell id="Wxdi5Obsvw719A-NBdkG-40" value="N" style="text;html=1;align=center;verticalAlign=middle;resizable=0;points=[];autosize=1;strokeColor=none;fillColor=none;" vertex="1" parent="WIyWlLk6GJQsqaUBKTNV-1">
          <mxGeometry x="490" y="-174" width="30" height="30" as="geometry" />
        </mxCell>
        <mxCell id="Wxdi5Obsvw719A-NBdkG-41" value="N" style="text;html=1;align=center;verticalAlign=middle;resizable=0;points=[];autosize=1;strokeColor=none;fillColor=none;" vertex="1" parent="WIyWlLk6GJQsqaUBKTNV-1">
          <mxGeometry x="710" y="-269" width="30" height="30" as="geometry" />
        </mxCell>
        <mxCell id="Wxdi5Obsvw719A-NBdkG-42" value="Pode ser" style="rhombus;whiteSpace=wrap;html=1;rounded=0;" vertex="1" parent="WIyWlLk6GJQsqaUBKTNV-1">
          <mxGeometry x="390" y="-40" width="80" height="80" as="geometry" />
        </mxCell>
        <mxCell id="Wxdi5Obsvw719A-NBdkG-44" value="" style="endArrow=none;html=1;rounded=0;entryX=1;entryY=0.5;entryDx=0;entryDy=0;exitX=0;exitY=0.5;exitDx=0;exitDy=0;" edge="1" parent="WIyWlLk6GJQsqaUBKTNV-1" source="etLwFJgJZtQVE6GD_fiM-2" target="Wxdi5Obsvw719A-NBdkG-42">
          <mxGeometry width="50" height="50" relative="1" as="geometry">
            <mxPoint x="660" y="-80" as="sourcePoint" />
            <mxPoint x="710" y="-130" as="targetPoint" />
          </mxGeometry>
        </mxCell>
        <mxCell id="Wxdi5Obsvw719A-NBdkG-45" value="" style="endArrow=none;html=1;rounded=0;entryX=0.5;entryY=1;entryDx=0;entryDy=0;exitX=0.5;exitY=0;exitDx=0;exitDy=0;" edge="1" parent="WIyWlLk6GJQsqaUBKTNV-1" source="Wxdi5Obsvw719A-NBdkG-42" target="Wxdi5Obsvw719A-NBdkG-27">
          <mxGeometry width="50" height="50" relative="1" as="geometry">
            <mxPoint x="660" y="-80" as="sourcePoint" />
            <mxPoint x="710" y="-130" as="targetPoint" />
          </mxGeometry>
        </mxCell>
        <mxCell id="Wxdi5Obsvw719A-NBdkG-46" value="1" style="text;html=1;align=center;verticalAlign=middle;resizable=0;points=[];autosize=1;strokeColor=none;fillColor=none;" vertex="1" parent="WIyWlLk6GJQsqaUBKTNV-1">
          <mxGeometry x="600" y="50" width="30" height="30" as="geometry" />
        </mxCell>
        <mxCell id="Wxdi5Obsvw719A-NBdkG-47" value="1" style="text;html=1;align=center;verticalAlign=middle;resizable=0;points=[];autosize=1;strokeColor=none;fillColor=none;" vertex="1" parent="WIyWlLk6GJQsqaUBKTNV-1">
          <mxGeometry x="430" y="-110" width="30" height="30" as="geometry" />
        </mxCell>
        <mxCell id="Wxdi5Obsvw719A-NBdkG-48" value="Pode Conter" style="rhombus;whiteSpace=wrap;html=1;" vertex="1" parent="WIyWlLk6GJQsqaUBKTNV-1">
          <mxGeometry x="1290" y="-359" width="90" height="81" as="geometry" />
        </mxCell>
        <mxCell id="Wxdi5Obsvw719A-NBdkG-49" value="" style="endArrow=none;html=1;rounded=0;entryX=0;entryY=0.5;entryDx=0;entryDy=0;exitX=1;exitY=0.5;exitDx=0;exitDy=0;" edge="1" parent="WIyWlLk6GJQsqaUBKTNV-1" source="etLwFJgJZtQVE6GD_fiM-99" target="Wxdi5Obsvw719A-NBdkG-48">
          <mxGeometry width="50" height="50" relative="1" as="geometry">
            <mxPoint x="1150" y="-326.5" as="sourcePoint" />
            <mxPoint x="1278" y="-281.5" as="targetPoint" />
          </mxGeometry>
        </mxCell>
        <mxCell id="Wxdi5Obsvw719A-NBdkG-50" value="Pode ser" style="rhombus;whiteSpace=wrap;html=1;" vertex="1" parent="WIyWlLk6GJQsqaUBKTNV-1">
          <mxGeometry x="910" y="-300" width="80" height="80" as="geometry" />
        </mxCell>
        <mxCell id="Wxdi5Obsvw719A-NBdkG-51" value="" style="endArrow=none;html=1;rounded=0;entryX=0;entryY=0.75;entryDx=0;entryDy=0;exitX=1;exitY=0.5;exitDx=0;exitDy=0;" edge="1" parent="WIyWlLk6GJQsqaUBKTNV-1" source="Wxdi5Obsvw719A-NBdkG-50" target="etLwFJgJZtQVE6GD_fiM-99">
          <mxGeometry width="50" height="50" relative="1" as="geometry">
            <mxPoint x="930" y="-80" as="sourcePoint" />
            <mxPoint x="980" y="-130" as="targetPoint" />
          </mxGeometry>
        </mxCell>
        <mxCell id="Wxdi5Obsvw719A-NBdkG-52" value="" style="endArrow=none;html=1;rounded=0;exitX=0;exitY=0.5;exitDx=0;exitDy=0;entryX=1;entryY=0.5;entryDx=0;entryDy=0;" edge="1" parent="WIyWlLk6GJQsqaUBKTNV-1" source="Wxdi5Obsvw719A-NBdkG-50" target="Wxdi5Obsvw719A-NBdkG-24">
          <mxGeometry width="50" height="50" relative="1" as="geometry">
            <mxPoint x="950" y="-239" as="sourcePoint" />
            <mxPoint x="900" y="-210" as="targetPoint" />
          </mxGeometry>
        </mxCell>
        <mxCell id="Wxdi5Obsvw719A-NBdkG-54" value="Forma de Disperção" style="ellipse;whiteSpace=wrap;html=1;" vertex="1" parent="WIyWlLk6GJQsqaUBKTNV-1">
          <mxGeometry x="1230" y="-50" width="90" height="40" as="geometry" />
        </mxCell>
        <mxCell id="Wxdi5Obsvw719A-NBdkG-55" value="" style="endArrow=none;html=1;rounded=0;entryX=0.5;entryY=1;entryDx=0;entryDy=0;exitX=1;exitY=0;exitDx=0;exitDy=0;" edge="1" parent="WIyWlLk6GJQsqaUBKTNV-1" source="Wxdi5Obsvw719A-NBdkG-10" target="Wxdi5Obsvw719A-NBdkG-54">
          <mxGeometry width="50" height="50" relative="1" as="geometry">
            <mxPoint x="1180" y="25" as="sourcePoint" />
            <mxPoint x="1230" y="-25" as="targetPoint" />
          </mxGeometry>
        </mxCell>
        <mxCell id="Wxdi5Obsvw719A-NBdkG-56" value="Débito Máximo" style="ellipse;whiteSpace=wrap;html=1;" vertex="1" parent="WIyWlLk6GJQsqaUBKTNV-1">
          <mxGeometry x="930" y="120" width="90" height="40" as="geometry" />
        </mxCell>
        <mxCell id="Wxdi5Obsvw719A-NBdkG-57" value="" style="endArrow=none;html=1;rounded=0;entryX=0.5;entryY=1;entryDx=0;entryDy=0;exitX=0.5;exitY=0;exitDx=0;exitDy=0;" edge="1" parent="WIyWlLk6GJQsqaUBKTNV-1" source="Wxdi5Obsvw719A-NBdkG-56" target="Wxdi5Obsvw719A-NBdkG-11">
          <mxGeometry width="50" height="50" relative="1" as="geometry">
            <mxPoint x="1040" y="-90" as="sourcePoint" />
            <mxPoint x="1090" y="-140" as="targetPoint" />
          </mxGeometry>
        </mxCell>
        <mxCell id="Wxdi5Obsvw719A-NBdkG-59" value="" style="endArrow=none;html=1;rounded=0;entryX=0.5;entryY=1;entryDx=0;entryDy=0;exitX=0.5;exitY=0;exitDx=0;exitDy=0;" edge="1" parent="WIyWlLk6GJQsqaUBKTNV-1" source="Wxdi5Obsvw719A-NBdkG-10" target="Wxdi5Obsvw719A-NBdkG-61">
          <mxGeometry width="50" height="50" relative="1" as="geometry">
            <mxPoint x="1040" y="-190" as="sourcePoint" />
            <mxPoint x="1090" y="-240" as="targetPoint" />
          </mxGeometry>
        </mxCell>
        <mxCell id="Wxdi5Obsvw719A-NBdkG-61" value="Pode-se aplicar num" style="rhombus;whiteSpace=wrap;html=1;" vertex="1" parent="WIyWlLk6GJQsqaUBKTNV-1">
          <mxGeometry x="1050" y="-200" width="110" height="90" as="geometry" />
        </mxCell>
        <mxCell id="Wxdi5Obsvw719A-NBdkG-62" value="" style="endArrow=none;html=1;rounded=0;entryX=0.5;entryY=0;entryDx=0;entryDy=0;exitX=0.5;exitY=1;exitDx=0;exitDy=0;" edge="1" parent="WIyWlLk6GJQsqaUBKTNV-1" source="etLwFJgJZtQVE6GD_fiM-99" target="Wxdi5Obsvw719A-NBdkG-61">
          <mxGeometry width="50" height="50" relative="1" as="geometry">
            <mxPoint x="1225" y="-94" as="sourcePoint" />
            <mxPoint x="1080" y="-224" as="targetPoint" />
          </mxGeometry>
        </mxCell>
        <mxCell id="Wxdi5Obsvw719A-NBdkG-63" value="1" style="text;html=1;align=center;verticalAlign=middle;resizable=0;points=[];autosize=1;strokeColor=none;fillColor=none;" vertex="1" parent="WIyWlLk6GJQsqaUBKTNV-1">
          <mxGeometry x="1065" y="-289" width="30" height="30" as="geometry" />
        </mxCell>
        <mxCell id="Wxdi5Obsvw719A-NBdkG-64" value="1" style="text;html=1;align=center;verticalAlign=middle;resizable=0;points=[];autosize=1;strokeColor=none;fillColor=none;" vertex="1" parent="WIyWlLk6GJQsqaUBKTNV-1">
          <mxGeometry x="1140" y="-10" width="30" height="30" as="geometry" />
        </mxCell>
      </root>
    </mxGraphModel>
  </diagram>
</mxfile>
